<mxfile host="Electron" modified="2023-12-17T18:58:16.020Z" agent="Mozilla/5.0 (Windows NT 10.0; Win64; x64) AppleWebKit/537.36 (KHTML, like Gecko) draw.io/22.1.2 Chrome/114.0.5735.289 Electron/25.9.4 Safari/537.36" etag="kD60Vcr5IP1ACiMK69mj" version="22.1.2" type="device">
  <diagram name="Seite-1" id="JHg62nc54cpTsKmX7lxt">
    <mxGraphModel dx="1418" dy="2085" grid="1" gridSize="10" guides="1" tooltips="1" connect="1" arrows="1" fold="1" page="1" pageScale="1" pageWidth="827" pageHeight="1169" math="0" shadow="0">
      <root>
        <mxCell id="0" />
        <mxCell id="1" parent="0" />
        <mxCell id="lBr7Zt-y_EoWjmt7NGRi-1" value="&lt;font style=&quot;font-size: 24px;&quot;&gt;&lt;b&gt;PDF&lt;/b&gt;&lt;/font&gt;" style="whiteSpace=wrap;html=1;shape=mxgraph.basic.document" parent="1" vertex="1">
          <mxGeometry x="150" y="160" width="50" height="70" as="geometry" />
        </mxCell>
        <mxCell id="lBr7Zt-y_EoWjmt7NGRi-13" style="edgeStyle=orthogonalEdgeStyle;rounded=0;orthogonalLoop=1;jettySize=auto;html=1;entryX=0;entryY=0.5;entryDx=0;entryDy=0;" parent="1" source="lBr7Zt-y_EoWjmt7NGRi-2" target="lBr7Zt-y_EoWjmt7NGRi-9" edge="1">
          <mxGeometry relative="1" as="geometry" />
        </mxCell>
        <mxCell id="lBr7Zt-y_EoWjmt7NGRi-14" style="edgeStyle=orthogonalEdgeStyle;rounded=0;orthogonalLoop=1;jettySize=auto;html=1;entryX=0;entryY=0.5;entryDx=0;entryDy=0;" parent="1" source="lBr7Zt-y_EoWjmt7NGRi-2" target="lBr7Zt-y_EoWjmt7NGRi-10" edge="1">
          <mxGeometry relative="1" as="geometry" />
        </mxCell>
        <mxCell id="lBr7Zt-y_EoWjmt7NGRi-15" style="edgeStyle=orthogonalEdgeStyle;rounded=0;orthogonalLoop=1;jettySize=auto;html=1;entryX=0;entryY=0.5;entryDx=0;entryDy=0;" parent="1" source="lBr7Zt-y_EoWjmt7NGRi-2" target="lBr7Zt-y_EoWjmt7NGRi-11" edge="1">
          <mxGeometry relative="1" as="geometry" />
        </mxCell>
        <mxCell id="lBr7Zt-y_EoWjmt7NGRi-16" style="edgeStyle=orthogonalEdgeStyle;rounded=0;orthogonalLoop=1;jettySize=auto;html=1;entryX=0;entryY=0.5;entryDx=0;entryDy=0;" parent="1" source="lBr7Zt-y_EoWjmt7NGRi-2" target="lBr7Zt-y_EoWjmt7NGRi-12" edge="1">
          <mxGeometry relative="1" as="geometry" />
        </mxCell>
        <mxCell id="lBr7Zt-y_EoWjmt7NGRi-2" value="" style="sketch=0;outlineConnect=0;fontColor=#232F3E;gradientColor=none;fillColor=#ED7100;strokeColor=none;dashed=0;verticalLabelPosition=bottom;verticalAlign=top;align=center;html=1;fontSize=12;fontStyle=0;aspect=fixed;pointerEvents=1;shape=mxgraph.aws4.container_registry_image;" parent="1" vertex="1">
          <mxGeometry x="230" y="199.75" width="60" height="60" as="geometry" />
        </mxCell>
        <mxCell id="lBr7Zt-y_EoWjmt7NGRi-5" value="" style="sketch=0;outlineConnect=0;fontColor=#232F3E;gradientColor=none;fillColor=#232F3D;strokeColor=none;dashed=0;verticalLabelPosition=bottom;verticalAlign=top;align=center;html=1;fontSize=12;fontStyle=0;aspect=fixed;pointerEvents=1;shape=mxgraph.aws4.json_script;" parent="1" vertex="1">
          <mxGeometry x="140" y="238.63" width="52.16" height="71.37" as="geometry" />
        </mxCell>
        <mxCell id="lBr7Zt-y_EoWjmt7NGRi-7" value="" style="sketch=0;outlineConnect=0;fontColor=#232F3E;gradientColor=none;fillColor=#232F3D;strokeColor=none;dashed=0;verticalLabelPosition=bottom;verticalAlign=top;align=center;html=1;fontSize=12;fontStyle=0;aspect=fixed;pointerEvents=1;shape=mxgraph.aws4.email_2;" parent="1" vertex="1">
          <mxGeometry x="211.62" y="155.75" width="47.76" height="30" as="geometry" />
        </mxCell>
        <mxCell id="lBr7Zt-y_EoWjmt7NGRi-8" value="" style="sketch=0;aspect=fixed;pointerEvents=1;shadow=0;dashed=0;html=1;strokeColor=none;labelPosition=center;verticalLabelPosition=bottom;verticalAlign=top;align=center;shape=mxgraph.mscae.other.powerpoint;fillColor=#DE5D24;" parent="1" vertex="1">
          <mxGeometry x="210" y="275" width="51" height="51" as="geometry" />
        </mxCell>
        <mxCell id="lBr7Zt-y_EoWjmt7NGRi-26" style="edgeStyle=orthogonalEdgeStyle;rounded=0;orthogonalLoop=1;jettySize=auto;html=1;entryX=0;entryY=0.5;entryDx=0;entryDy=0;" parent="1" source="lBr7Zt-y_EoWjmt7NGRi-9" target="lBr7Zt-y_EoWjmt7NGRi-21" edge="1">
          <mxGeometry relative="1" as="geometry" />
        </mxCell>
        <mxCell id="lBr7Zt-y_EoWjmt7NGRi-9" value="Chunk of text" style="whiteSpace=wrap;html=1;rounded=1;fontSize=17;" parent="1" vertex="1">
          <mxGeometry x="360" y="127.25" width="120" height="30" as="geometry" />
        </mxCell>
        <mxCell id="lBr7Zt-y_EoWjmt7NGRi-27" style="edgeStyle=orthogonalEdgeStyle;rounded=0;orthogonalLoop=1;jettySize=auto;html=1;entryX=0;entryY=0.5;entryDx=0;entryDy=0;" parent="1" source="lBr7Zt-y_EoWjmt7NGRi-10" target="lBr7Zt-y_EoWjmt7NGRi-22" edge="1">
          <mxGeometry relative="1" as="geometry" />
        </mxCell>
        <mxCell id="lBr7Zt-y_EoWjmt7NGRi-10" value="Chunk of text" style="whiteSpace=wrap;html=1;rounded=1;fontSize=17;" parent="1" vertex="1">
          <mxGeometry x="360" y="185.75" width="120" height="30" as="geometry" />
        </mxCell>
        <mxCell id="lBr7Zt-y_EoWjmt7NGRi-28" style="edgeStyle=orthogonalEdgeStyle;rounded=0;orthogonalLoop=1;jettySize=auto;html=1;entryX=0;entryY=0.5;entryDx=0;entryDy=0;" parent="1" source="lBr7Zt-y_EoWjmt7NGRi-11" target="lBr7Zt-y_EoWjmt7NGRi-24" edge="1">
          <mxGeometry relative="1" as="geometry" />
        </mxCell>
        <mxCell id="lBr7Zt-y_EoWjmt7NGRi-11" value="Chunk of text" style="whiteSpace=wrap;html=1;rounded=1;fontSize=17;" parent="1" vertex="1">
          <mxGeometry x="360" y="244.75" width="120" height="30" as="geometry" />
        </mxCell>
        <mxCell id="lBr7Zt-y_EoWjmt7NGRi-29" style="edgeStyle=orthogonalEdgeStyle;rounded=0;orthogonalLoop=1;jettySize=auto;html=1;entryX=0;entryY=0.5;entryDx=0;entryDy=0;" parent="1" source="lBr7Zt-y_EoWjmt7NGRi-12" target="lBr7Zt-y_EoWjmt7NGRi-25" edge="1">
          <mxGeometry relative="1" as="geometry" />
        </mxCell>
        <mxCell id="lBr7Zt-y_EoWjmt7NGRi-12" value="Chunk of text" style="whiteSpace=wrap;html=1;rounded=1;fontSize=17;" parent="1" vertex="1">
          <mxGeometry x="360" y="302.75" width="120" height="30" as="geometry" />
        </mxCell>
        <mxCell id="lBr7Zt-y_EoWjmt7NGRi-17" value="Embeddings" style="whiteSpace=wrap;html=1;rounded=1;fontSize=17;" parent="1" vertex="1">
          <mxGeometry x="570" y="127.25" width="120" height="30" as="geometry" />
        </mxCell>
        <mxCell id="lBr7Zt-y_EoWjmt7NGRi-34" style="edgeStyle=orthogonalEdgeStyle;rounded=0;orthogonalLoop=1;jettySize=auto;html=1;entryX=0;entryY=0.5;entryDx=0;entryDy=0;entryPerimeter=0;" parent="1" source="lBr7Zt-y_EoWjmt7NGRi-18" target="lBr7Zt-y_EoWjmt7NGRi-32" edge="1">
          <mxGeometry relative="1" as="geometry">
            <mxPoint x="699.9999999999998" y="260" as="targetPoint" />
          </mxGeometry>
        </mxCell>
        <mxCell id="lBr7Zt-y_EoWjmt7NGRi-18" value="Embeddings" style="whiteSpace=wrap;html=1;rounded=1;fontSize=17;" parent="1" vertex="1">
          <mxGeometry x="570" y="186" width="120" height="30" as="geometry" />
        </mxCell>
        <mxCell id="lBr7Zt-y_EoWjmt7NGRi-19" value="Embeddings" style="whiteSpace=wrap;html=1;rounded=1;fontSize=17;" parent="1" vertex="1">
          <mxGeometry x="570" y="245" width="120" height="30" as="geometry" />
        </mxCell>
        <mxCell id="lBr7Zt-y_EoWjmt7NGRi-20" value="Embeddings" style="whiteSpace=wrap;html=1;rounded=1;fontSize=17;" parent="1" vertex="1">
          <mxGeometry x="570" y="304" width="120" height="30" as="geometry" />
        </mxCell>
        <mxCell id="lBr7Zt-y_EoWjmt7NGRi-21" value="&lt;pre&gt;0100&lt;br&gt;1011&lt;br&gt;0101&lt;/pre&gt;" style="whiteSpace=wrap;html=1;rounded=1;strokeColor=none;fontStyle=1" parent="1" vertex="1">
          <mxGeometry x="527" y="120.88" width="40" height="42.75" as="geometry" />
        </mxCell>
        <mxCell id="lBr7Zt-y_EoWjmt7NGRi-22" value="&lt;pre&gt;0100&lt;br&gt;1011&lt;br&gt;0101&lt;/pre&gt;" style="whiteSpace=wrap;html=1;rounded=1;strokeColor=none;fontStyle=1" parent="1" vertex="1">
          <mxGeometry x="527" y="179.37" width="40" height="42.75" as="geometry" />
        </mxCell>
        <mxCell id="lBr7Zt-y_EoWjmt7NGRi-24" value="&lt;pre&gt;0100&lt;br&gt;1011&lt;br&gt;0101&lt;/pre&gt;" style="whiteSpace=wrap;html=1;rounded=1;strokeColor=none;fontStyle=1" parent="1" vertex="1">
          <mxGeometry x="527" y="238.63" width="40" height="42.75" as="geometry" />
        </mxCell>
        <mxCell id="lBr7Zt-y_EoWjmt7NGRi-25" value="&lt;pre&gt;0100&lt;br&gt;1011&lt;br&gt;0101&lt;/pre&gt;" style="whiteSpace=wrap;html=1;rounded=1;strokeColor=none;fontStyle=1" parent="1" vertex="1">
          <mxGeometry x="527" y="296.38" width="40" height="42.75" as="geometry" />
        </mxCell>
        <mxCell id="lBr7Zt-y_EoWjmt7NGRi-31" value="" style="shape=image;verticalLabelPosition=bottom;labelBackgroundColor=default;verticalAlign=top;aspect=fixed;imageAspect=0;image=data:image/png,iVBORw0KGgoAAAANSUhEUgAAALMAAACzCAYAAADCFC3zAAAAAXNSR0IArs4c6QAAAARnQU1BAACxjwv8YQUAAAAJcEhZcwAAFxEAABcRAcom8z8AACQVSURBVHhe7Z0J3BVV+cdftzAXXCg1XFHcABXXkkVNRBNLhWIRCzOkUEsklSVNECtBzDVBVMgl20REgVKhRRQlccFdqRTFXQsVc0l0er7zv5f/5fLcO2fmnDMz933n9/l8P358uXNm7r3PnTnn2U5ToVjaRGgn7C30FAYL5wtThdnC/cIzwivC28KHwkohKP2X/+fv/Duv4/WzhGsFxmE8xt1H4DybCoUKWauNcLAwVLhUuEVYJGCInwoYqE84z8PCbcKVwmnCIQLXVahQTa0r7CQcLowV5gkvCisEzdCyguvhurg+7uS9BK6b6y/UgrWe0F0YKXDXfVnQDCjvvCRw/aMEniS8r0ItQMx5uwoXCA8IywXNQBoV3s+DwkSB91nMuZuh9hO4cy0QPhE0Q2huMK9fKIwWDhAKNbA2FvoKtwqvC9oX3lJ4U2AhOVDg6VSoQbSLcIbwmFB2ixX8HzyV+FzOEnYVCuVUnYQLhecE7YssWJ3nhYsFPrdCOdHuAn5gHqXal1ZQn7eEK4TCqDMU/tUJwmuC9iUVxIObAU+2nYVCKQl3E3O+pYL2pRTY8YJwulC49TzrWIF8Bu1LKHDLfUIfoZBj8ei7TvhY0D74Aj/g/bhB2E0oZKlWwhChmFJkC1OPkwW+j0IJ1EGYIWgfbkE2zBQ6CoVi6HgBP6j2gRZkC0/JQUKhCG0hTBJaSv5Eo8L3c5WwpVBIEdUb8wXtwyvIJyRukcRVqEIkBLHI0D6wgnyzTBggFBKdK3wgaB9ULll77bWDz372s0Hr1q2DzTffPPjc5z4X0qZNm2CzzTYLNt5446BVq1bqsc0UahvHCGsJLVKthWsE7cPJFRhq165dg29961vBT37yk+A3v/lNcM899wTPPPNM8MorrwT//ve/g7fffjt46623gmXLlgWPP/54MHfu3GDatGnByJEjg969ewd77bVXSzDwaUKLixxuK9wuaB9ILuAue9xxxwXXXntt8Le//S147733Ahu99tprwbx584IJEyYEhx56aHM2bKrUtxNahMg3vlfQPohMYfpw4IEHBpdddlnw/PPPBytXriyZolvxw3jooYeC4cOHBzvvvLN6LQ0O3297oVmrs/C4oH0AmfKVr3wlmD59evDhhx+WTC4dvfTSS8FFF10UdOjQQb2uBuZRodmmleLCeVrQ3nhm7LvvvuEc+D//+U/JvLLRyy+/HIwdOzac3mjX2aA8KewvNCvtK9DBR3vDmbDRRhsFo0aNCv71r3+VzCkfevDBB4NjjjlGveYG5VmBDk3NQgRDeEPaG80E7sYsxvIqpjpMPTbZZBP1+hsQnsh7Cg0tFnuLBe0NZsLxxx8fPtIbQXfddVewyy67qO+jAXlIaNgqlq2FXCXSn3XWWcEHH3xQMhU74engDvrGG2+Eno/nnnsu9Dm/++67wX//+9/Sq+y1ZMmS4OCDD1bfTwOCPWAXDaUNhNz4kdddd93gZz/7Wck8kumdd94JFi1aFEydOjU4+eSTgy9/+cvBTjvtFGy11VbB5z//+TCwsuWWWwZbb7110Llz5zBQMmbMmOD2228Pnn322dIoycSP5Mgjj1TfWwOCHxr7aAjRxC83kb111lknmDhxYsks4osF2bnnnhveHT/zmc+o54iibdu2Qf/+/cMATNIF5+uvvx707Nlz1Zj8gPjRHHbYYUGfPn3CAM/AgQPD8xx99NFB9+7dg1133TXYcMMNV7uWnEAL34boiUeuhfYGMoG7YxLde++9oYFgNNq4ScHAzj///NC/HFcvvPBC8Ktf/SpYsGBB8Pe//z00cKY1H330UfDJJ5+EMP1hKrV8+fLwHE8//XS42L3wwguDr3/962GQhrwS7dpShlyOXIvst/cF7eJTZ8iQIeEXHEd8+YMHD/YebsaorrzySmdzeFMxXZo9e3bwwx/+MNhzzz3Va0sJ7KS/kEvtJeSmLSyPWZJ/4ohpwPbbb6+O5wvmwg8//HDpCtIVXp3f/e53YfQzo1wRGqpjN7kS3dwpTdcuOHW22GKLMPfBVDyShw4dqo6VBviT77jjjtLVpC+mJnPmzAnn2muttZZ6jR6hU2mudgOg1Em70Ey44oorSl9TtJhXHnXUUeo4acD8lWnN4sWLS1eUnT799NPg5ptvDvbff3/1Wj0yWciFjhPS2OPDiCOOOCJ4//33S19PfeHywsWmjZMGvXr1CubPn1+6mvyI/Gw8OBQZaNftAewHO8pURPjYY0O7wNThw//LX/5S+krqi0R63FraOL7BpXbjjTd6SzF1JQoMUlwkYkfYUybCn0wfBe3CMoFKEBN9/PHHwTe/+U11DJ8QVDnvvPNCl1qjiMhmitMwAm2ZbDZEpyHtgjKB4AABDhP9/Oc/V8fwBZ6CE088MXjsscdKV2CvFStWBE888UTwpz/9KbjllluCm266Kbzb451gMUd1TBJftia8QieddJL63jxA56RUtaOQm+kFEP0yESFpClG1MXzAVIaEIVuxDuDHwA+R4Mc+++wTbLPNNmEqa7UHgkgl4XUCNEQuhw0bFsyaNSvMI0kqAjNUxlSexxO461KbbvAYoJmediGZwJdHICBKfCH4VLUxXNOxY8dgypQp1pUrS5cuDSZPnhzWDa6//vrquUygJAwfOgb517/+tTR6PDHHP+2009TxHXOTkMp0o7fwkaBdRCaQn0xkK0qEgvlStTFcQeuB0aNHBy+++GLprMnEvJpK8N133109jw38KEiEuvPOO0tnMxcVOTwFtXEdgn15b6e7mUBeqnYBmUDWGonsUSKHoUuXLuoYLlhvvfXCXI44wRpNGAuRSB9GXA1GzVz4n//8Z+nsZsITRIRVG9Mh7GeIvXkTHeu1E6fKbrvtFnz/+98Prr/++uCRRx4xyh+eOXOmt+jWQQcdFNx2222lMyUXd8rKzLi0aN++fbhwjCN6gzBn18ZzyJmCF7Hoy6yFFm4t7nzMjQl2xFXfvn3VcW3YYYcdwrYEcXNAqkVyE3fILNM1ebKcc845sQoLuJl4Dn9jb+0E52IzHO2EXuHXP2LEiPBOkFRUgjCX1cZPAt6Q008/PfbjuVp4F376058GX/jCF9TzZAGhdaZkpkph/ozdORXbALDFlnYyL3CXwqVkW6WBrr76avUccSHRn0T4++67rzRyMuFVYTFKyy7tPFlzwgknGKcEPPXUU76nG+yC5XQbissF7URe6NGjR3D33XeXPi57ffvb31bPE4f99tsv7K9BMo6N6FHXCK0ETj31VONwO14XbQyHYH9OxKaRqWwYyd143LhxYXTLlRiLllva+UxgCjB+/PjgzTffLI2YTExJWLSmmLxjDQEaE+HdIECjjeEIZ3fniwTtBE5hRU0Y1rV4DCZJuCeyRo4z1dE24ovGKLbddlv1PHmGtYFpgOXSSy9Vx3DIRMFKqYStu3XrFraH9SGy6OJGzihp+uMf/1gaIbnIDf7Sl76knqNR+OIXv2jkrcHD1K5dO3UMR7AnulV3Ufx82sDOICOLdq++dOutt6rnrQV3oz//+c+lo5OJJB9cgbi7tHPYQDI/j/Q99tgjNS8I0ywT0YtaO94h7BybSBsLTwjaoE6g/i1p8gvha/yzUQWrv/71r9Vz14LU0KQij4JGM77aalHWhJ+93CuaKRTNFunVob3eFUzTqAyPEotbz2sCOshil7HVT9AGdALZXEkWVTzySLzBrYVPNMq7gGNfO38tKMmPK0LQv/jFL8KmMNqYtuy9996hJwWXnqZyRbnPFgLkYUeJgAtTRu14h2CXsbSOcJugDWYNj0n6PsQRRotvtrI+rV+/fqV/ra24xkxEL464Ux5yyCHqWLbgv73ggguMG8cQDsetqY1lC9+ZyVP0xz/+sXq8QygIwT6NRedOL0ESNrCJ24GTx+mAAQPWGIsmiFGKa8ysyk1EewAqW3zMi0nm/+53vxsm38cVwQ5fiUq//e1vS2epLWoaPYe4cdNhn8YaLWgDWRP3MU6vNtx22lhZGDO9Jrj7+GoKzp3VRbtdFtVnn312mNOinScJJk9Cpo4puCGxTyNtJNDLQBvECjwXteZ9mi6//PLQ36uNBWkaM0n23PF8FXh26tQp3J3K9TYUpKTyObnI42YhGFW/yPfLQlU73iF0E91QiFRXwfl2v0wv4nTuIUQa9QWkaczMjbXX20LDGu70Pt2TeHxIUbVdnLHANAlssSOBdrxDVgpdhEh5yY7jDZrq4osvVseoJk1jZvGpvT4ptNnl+uP8wG3v2nhdWODa7HBl4nO+5ppr1GMdM16oq1bCIkE7ODFEhkxzkEkSN20dm6Yx4xrTXp8EqjT+8Ic/lEaOFj51jIgiVvzKNGmxEf5wGicmKez93ve+VxqltljnaMc6hkqU9YWa6ia8K2gHJ8a0PzI5y3HyKBrNmHFv4Y82Ta/EHcl2btUh8XITGfp/2IhUVlJaK8eOgoy/qPOSz5FC21zsFHutKedeDKoxTPo30No1buW0D2Ou5We2MWbugNwJaahiqoULF4YtBeq5ub761a9ap8oyn/79738f5mBo56iGErGoXI0HHnggrS3gRgqq6GTuvEMR8XoT0atYO74eeTfmcjI/uRqmoiqGkLhpWHiDDTYIc4/jBqGqhYGyFfJ2222nnqcMQauo4AlNIFPKG5khqB34qbVy2l+ZO5JJVQZx/yQZV3k2ZnKomSKYisUZ3UuT7i7F50eqaZySJ00EqNizpVamIaH1V199tfRqXTSr8Z0vUuIlQa0RPFLQDkgMYV6TzvXE/bXjo8ijMRMw4A5Hz2cT4ZdlwcTjWxsvLkwXaNdlO58mdVbbFIjxo3Jq8NC4DNZEgN2uoXGC9uLEmLhx8HIwr9aOjyJPxkyVzCmnnBKrZpHsN6pPtPFs+cY3vhHcf//9pTMlEz8IPr/KWkVaAEdVAnHeTTfddLXr8ch5whqaK2gvTgR+VBMfKlE17XgT8mDMLNCSLsTwG9Mxn+N9dFpiEcb8e9myZaUzJhPTCsrZmMfjzYjKVKS3Ht+/dk0euEtYTbThd1pRQnjWpELh8MMPV483IWtjZv7I+HE3AaoWx+Nqo2i2+hwuILdl0qRJ1vNpduCimU6USEjSrsMT2O3mwiodIrwnaC9OBBXRUV8ypVKEc7XjTcjKmMt9lqMWQnGFl4DNN315AgjWmDSYtFXKLYOxW+x3lU4RtBcmxqT/G4k1NumCaRrzL3/5yzA1kx9pnNRM2ocRiOG/piLZnhRQ3G7V12cLKaukrj766KOls7kVUxCuXTu3R04VVsl5XwwTtxRdgbRjTUnTmMk+i9NPDm8GyVLlBin8l80s4+zQSiqorxa8PBHZt8T104VFrU1rh4RcIYRaS3BaVcJCgXqwesIl9bWvfU093pQ0jdlULOqoO2Q+rY3P35kfmyYNlbuCdujQQR3PFsZlP3DO40L0B8mgNwjbR2DHTZsIJG1oL0oEUaQnn3yy9PZ0kRdLX2XteFPyZsx4NEy7FZHzG6fpN0UBNDZ0vf1xGXzKLjr8u84uNIQ2y9hxGEF5VdBelAh+7VHNtgm/RoVOo8iLMROCpqN8XN8qVdyEouPkbDDXZc7rY0dVfOV0I7XpYUKnVm1sz7B1xA5CU2fhY0F7USJ4lEbF78mQs+3M6cOYqW4xFa7HSy65JHHQpwyZgmQWxkntdBk1rKZt27Zhd9IkbSD4PDzXAGpgv+G2xT1Lf3AGyShRXwzJKLZzq6yMGZfjjBkznHcrOuCAA8IuSKZ+a/KcfbY4YBrI+4wjvBm2C/uEYMdNJ1X8wQk4/6NW7TwukySHV5KFMePVoLDTV4SLTDvGJ43SVEzpSDF12YO6DO+T1sJxnhoEZzLYMHSw0HR+xR+cQNFnlMsHX6ptMkqaxkyNHqFhtiTTjnMNNZNnnnlmrNpAciLIydDGs4XdruLknZA5l2KyEZBb1DS14g9OoMbsH//4R+lt6SLtk8oL7XhT0jRmEti11/uGaUcc0VWIY3yExkk4ihNsIUc9xfnzNULTnIo/OAGHfNRuqcz3aNGlHW9Kmsackcsp3Hk1iQja0KMkSTvfetBcJsrtWhYBFJvcm5jMEsIeBNo/JoZ5X1TBJguFQYMGqcebkqYxx23A6ApyQmzEExL3X73+I3HBW2W6zyHbIfsIyyvcJzQ9W/EHZ5B3ESX6qGnHmtKSjRlfsElnzrJItu/Vq5d6jiQQHCp3I41S//791TEc87QQOpy1f7SCXUqjNHfuXKtfbUs2ZqYQ7IfITcN0uzNSCG644QZnGwPhizbRggULvAR5qqCEqumdij84g7tAVCsu5s02OQcmvZTJO9COrUWjGDPBifJrCEVz5zUVW1OQwmpbp4dr1cSFyI/t2GOPVcdwyHLBzz7YLAJNGr/YbCxOZ9AokW8QZ77YKMZMWmnl63jC0aAFl6epcJ995zvfCdc4lWPFgf6BJk8GFrKeq08+EMK+Xdo/WkPINUpUbyd9kzRDiXLmU8dGhQRzPJPSpEY15jKEoimojdPInS5SSftc8Jmy1UaUCI0zLdLGcAQh7aZPK/7gFJK0o0QqJDVw2vEm0NfMRHhPMMjKZuUajW7MZaiixkij6vXKstn4k5xrmvhEiSeHdrwjaPbp785s2m191qxZie/O3FEIaJiKOxZelFqlSfSu0NRoxgzcNZmr8vSLaj1A+kHShSHTlKj8dURxg3a8I8I7s5c5M2CgGEGU+KBtevpynhNPPDGcA5qKZic8Oap7ojUnYy5DQpfJDlra7gSm0GYhSuRk+8rHFsI5sxdvRpnevXtHejUQEUPbXguUJlESz2rdVDj1K5udNJdpRjW4KKOEd0g71gSewlGNb5hSuvR1VxF6M7z4mcvgX8TPaCKaxmhjxIVEJ0qTTH5EiNU4pUksUGptsdvoxmwSFsdvrx1rAk84eoBE6Uc/+pF6vANoLecnAliJiQsNUYdG50ttjCRwF4jjfyWiViszrDDmaCjgjRJV7tqxDggjgM5zM6rBB8rj3ES0v43yOMQBHzONAG27ZBbGHA3lXFHeE7Zx9tG9SQhzM2ZX/MEbPXv2NI7lk3fguhq5XJoUNa+rpbxlzeXRmE16N1PcYNP4pw5UaDddW/EHb5DXSn6rqWi0wrYH2lg2kOeLK880n6GsvOUz59GYacdLcW890YrAZk+VOoT5zM4rTWpB5UEc9xlTA1/5sHG7ZFLxQeUHFSDaeK6hBOqMM86oWWmSR2PG7RaV60yKA5vYa8dbEnYDdV4DWA+mG3Ea+DEt4Ev1sRMqARfGjpNKSWINPwSbfIZ6MG7fvn0jE3jyaMysT6LakOE2te2XUoOwBtB5dXYUVO+ahlnLInpE9bI2ni077rhjOAUy6VqKqJ7m8e/6elj4mlZn59GY6bsR1caYSKOnbqc9BPd9M6Jg/lzLn1tPfBAs4sr921zTtWvXWP3kSHJiz0LbZjYcH7dvRh6NmaBXVI0gnaxIENOOtwD7DftmOO9oZAKdb5IKXzDhUx89zQjyEAmLs9kkixo64CftaMTxcZVHY2YLjKgKbqZ0HjapX9XRyHmvORPw29oK37Wv8CgtBdgG2GTbt7LoHWfaDJLXxQnoVCuPxswdN6rFBF4qDxvFY79hrznnXUCj4I4a5cIxFRtEUgrUsWNH9Vy2kHNAmqlpl0zyDzCcWo9SMtO4XtMuoLWUR2MmlTfqfZFd57K4tsSqLqDIeX/mejA3ddVCtSxcWJQC+Wo8goswTpdM5vf0Y67uzxwnCYrihlotG/JozCzso8ROWNqxlqzqz4ycd86vx9ChQ2N7M0yFH5t0UNP9t+NAWJ4umaZ9IxBzbwwvzhyc9FTKmZi/kwClKW/GzKKeessosaOCdrwl2O8qOd/TpB54AHxrzpw54T6E2vlt4e7PXTZO6ywTsdInWWerrbZada5aa4u8GTMBk6hWuLgc2UZDO96CNfY0YbeeZYL2YudQzhMluk+aVC/UE7kgV111la/wadgMhfmv7VOG4xlHC983ijHTKDFKy5cv97G2WWO3KeR0H8BaEMmLmnvyC2YxwUKRfTdMqrzrCY/EiBEjvDQ9JAOMCmWywZIs6ubPn1+32LZRjNmkFpMkIw8V2mvsA4ic79CqQW5DVE4E/TQqG2njAbjuuuust9BduHChty6Z+ItNswLRkiVLwmOImmnjlWkEY6bZuskNx7aDVQ3C7p/Vcr53tgaFpFHxe4pgtZAnVcCmedG1xA+CKQzVy9XjJ6Fbt26h1+Ejw6oWHrVEP019rY1gzGPGjCmNUFs8bdmqWDveEnXvbCKBtDjSDnAGLiq2gKgnfuWUPmnHs9s+JetxPAqauPtjVORlaOeJgnk4xa9x7sa4pbp06aKOV4u8G3O7du2CpUuXlkaoLSrEiXhqY1iAvWK3a2g94VZBO8gZtISKit/jJai19VgZ8hnYzZQ7nY1IM6WrUtTjvgwOfzLt4myqQwYcmXBJMu3ybsy1qtmrxZpFO96SGQJ2q2qUoB3kDFw4ixYtKr1FXSTcmN7BmI6wV/PKlStLRycTCzEWcto5AD8qleamxbmIKCfd9m2qzvNszEcccUQYgY0SC3DbTYxqMFKoqW7Cu4J2oBMIPETtf8f8s55haeARwCBtxHyaL70635bUTCpNTFIzEV6NyZMnO2lHlVdj5skYNV0si4xAbQxLsNOuQk21ErwnHZn0oBs8eLB6bD2YAgwfPtw674MnA4sajJoVeJypDE3WbXcEqCSPxkx01SRWgFj/MK/WxrEEO8Ve62q8oB3sDBOfJJEw7VgTWJyxOWWcxZmmOH5jPDSkjrr2o9L/Q1NWxsx0i3a6pqJPtzaOAy4QItVFoAmdNoATTBqRz5w507pBNfNuxrGdT9cTIWhSRT1VHNd8imVhzAR2WHSbiiCJbZeqGmCfBwqR2khYKGiDOIFmflHV0fQls63gAL4ACgHi7KtnIub1NDTp1KmTel5bGJcko1pPh7SNGW+PqecCcd2Vbc8cQ6+XDQUjefVq0MPCpH8w3gPt+CRw5xw5cqR1aBzRhNBX1ThV2Ty5li1bVjqbrjSNmR1gTXowV4ptKrSxHDFaMNbewluCNpA13C1pAB4lkm+0423Aw0Av4iT51KRmErDxsT8Hc+2BAwcap4qmZcxsrhOnGz9irxpP0wvALrFPY60jeK0+MQmBUoLja19oQqskB5kI7wZeDQ/lPiF4P0w8PJVigauNVQsTY67cFQp3JF2cTN2RZVEDSDOYynM7ZqawthBL/QRtMCd0797dKHGIxZV2vAvoXEkSfK3QOPNier1FRSOTQiidFrpJvC5xH+O1XHxlkYbKZ0EaAT7y5Qkiq+TUVCaIeQK7jK2NhccFbUBrSO80iaYRNrbdFSkKkp/Gjh0bGjVfKsY1e/bsMBCjvd4W3jsbt0dtyVxPNCnUxq5F1O4C3IGZRiUxYoRXh0Qw7dwOeUJoLSTSGYI2qBNMXHTIxuccB4waLwJFrCQ0aa+xgXkxLXtJRbURC9C4bRb4cfoS00GPnotKsMfE2lF4QdAGtob5cFRpOqLTkKcuOKlByik5JLa68847Y89JMXyTBXcScTenQFk7r2OoKFEz5OJooqAN7gQWMiaaN2+ejxJ17zBFYn4bZyszTSTz0/gmyWfATcNmSlNLLFqTptAm4CLBWrsJbwraCayhuw1l+Sby7Lt0CkZHk3OM0Ea0JiBRx2bdwKLMZGszU5ELTlsHm62iY4L9YYdO5LWvhsn2AQjvBwaijZEn6LJ09913l646uZiWuJhemezHaCq6MHmqGKkH9udMXu/OVJ9ElamXRbDDZlckn9B3mECP7V2wXKvoKmmJa7IVgZMf/OAHxkUMDnF6Vy5rgqCdzAkmm7qXxYLQQ/+FxNDngseubR8N3JBUsbgsLyKMH6dfXrUWL14cNlmvtQloCmB3zkWXxaWCdkJrSC2McwchoME2XB5K141hzkj3JBf1iCTx+Mj7xR8dVyR50dq3X79+3rIBDcHewu6ePjRM0E7qBMLFdImMI+aVvkLe9ejRo4dxOLye8Aj46rzED51igShxY6Cn3bRp08I1ia+mOQnA3ryJ6IvX9FBW3qbejbJwO9EDzkegoxoCKlOmTAlWrFhROnsykVBEYo+PnnhlWKiZ1OjhLfHVcNIC7CxxtM9Uxwje9tsGHo0mX0K1CCgQgvZh1GTbuZgXk9p59tlnh6me2nlcQSU4rQ2ixP4ynvYYsQH7OlbwLkq7bxC0i3AG7VHjZmyVRcEstYDkTddqe2UCqZ7c3SZNmmRdV0gxAqmnvvpIV0MBhEmFDQ0mfT4dEnKjsK6QighzE17ULsQZrOzj7tdXKZJfmJPyw2Beyt2VfnPV+cgsPgly4CKkeSH5EzSIYSXvoo80+b2+kvk1eI+mW9SRQ62NkSE08NxJSFVDBO1inILDn9W+C+GiwodL0g0LR7wnFIxOnz49DJdTOm87F64UXg7m8j6S+WvBD9N081AWfSlG8UzBrlIXjwESpbULcgqPzDh79WUt8jDo35yFb3bIkCHGBbyDBg1Sx8gQCkIoDMlEuwjepxtAJ1DunnkWc3wqOrJaUNE4x3QvwyRppJ7BjrCnTHWc8KmgXaBTWrduHZZbxdkvLy3RGJ2e0jzmtWv3DXNyKj1MxDogzTm8AdgPdpQLTRa0i/QC9WnMc33tixJHNIFkXp9BzsIqqGKP4zIk2qiNkyHYT27URqCXgXahXsDldvTRR4euJZ9NXqJ0xx13+GjVagRPgWHDhsXai5xgTcYh6mqwmzW2cchabPf6sqBdsDfwFJBySe8zcgqyEF4BOmJq1+cLkuLjZsMxn6aQWBsvI9gZONwmOI/qK7wvaBfuHRaJFIrSkst0IeRKRCyptG7fvr16ba7AlcbWc/SVjiMWp7gJtTEzAjvpL+Ra5wraxacGd2uSj5iGTJgwIdw6gnxpuhlh5LSOYmrCnJsvmcAM/mUWUOxjzZ4rtBiI6iqkCV/2uHHjnBs1UwPSZOlAn0SE0LVxM2SMkHvhf75a0N5AZhDho0SLRCb2rabhCdEv+tD16dMn3PqL/hiV88mePXuGUcQkwtdM+HrAgAFB27ZtV7sWU8gxIXKJB4doZFKNHz9eHT9DrhFqdrzPmzYQ2M9YeyMNBfNxkwryeuKpwNSHhjYEgJgOYeBkqhF6ZjcBAizczQ899NCwcJV0TObittMlnkxsV6e9t4yYI2AfDaW2QqoeDl+QbOSyuplpDSF6FqxMa6gw4U7O9CdpclW1GGvUqFHq+8kQ7GFroSHVXvDeiT8N6FVBimkjiHk70xvtfWTIQwL20NDaQ3hS0N5gQ0EEko3MXZbtuxaLXYJK2vVnyNPCnkKz0D7CM4L2RhsOCgDoCp8n0V+Dmkh+cNo1Z8izAt9/s9K+Ao3vtDfccLBwo/LERfNyG5FnQRori0rtOjPmKWF/oVmqo/CIoL3xhqRDhw7h1CPt6CMLPDp7ptB5MymLhU5CsxaLgHsE7QNoWFgg0l+C6YftLle1RKCHrX3pms/mQzYlYZ65V9hZaBHaRmgWfuhqqKfDlUfFM4uxpEGXsvhhsLnQ1KlTw2pufNLaeXPELGFboUWJMvIpgvaBNAuI4HXu3DlM0cTnSyCEAgN6gxAqJy8bfzMNvgnMEFwhL5pQOpUqGC93YObn2vg5hMjeJkKL1FrCOUJmyUlpQsomBo7HgVYD3GUJn/PfNm3ahKmkJBIl2TA+Yz4UyMnh+2zxItvOW1PzAq9Q7jRAKFShzsJ8QfvACvLJAmE/oZCiLYQrBa/bHRdYw/dDqdOWQqEIHS88J2gfZEG20JnzBKFQDO0u3CpoH2hBNtDXotkHQnyplXCy8JKgfbgF6cDifKjA91HIUtylrxc+FrQPu8APKwU+912FQo7VR2gWCf8NAJ4KPu9CHrWpwE6d3rakaOEwpRgutNhIXhai7el44TVB+1IK4sGuThcKqbeTLfT/Yj59sfC6oH1JBfXBiK8QCi9FjtRBuEBYImhfWsHqPC9cIpBjXiinoqs/uxQ9KhSRxNWh2+ZjwplC4aFoIJFi2k8g8NLS59VvCAQ8BgrFwq7BRf3hKIEKiJZyt+YujBtztNBs6/BasrhbdxGYW9PPY7mgGUKj8rZAf4qJwoFCcRduIaLXWTdhhHCz0Kghc657usCT5yChYXq4FfIjNoWh0PZwge6UcwWSzt8VNAPKihUC18X1jROOErju1PbMK9SYYjeAQ4RThMuEGQJTk1cE33u4MD7neVig8Jcc79MErid3XeYLNaaYg7LL/t7CYcJggTskhZxUJbPgohUVOwgwf6U2rpwcxX/5f/7Ov/O6+wSO43jGYTzGZXzOQ+i+kJGamv4HiFphabMKOKQAAAAASUVORK5CYII=;" parent="1" vertex="1">
          <mxGeometry x="527.5" y="75" width="39" height="39" as="geometry" />
        </mxCell>
        <mxCell id="lBr7Zt-y_EoWjmt7NGRi-49" style="edgeStyle=orthogonalEdgeStyle;rounded=0;orthogonalLoop=1;jettySize=auto;html=1;entryX=0;entryY=0.5;entryDx=0;entryDy=0;fontSize=17;" parent="1" source="lBr7Zt-y_EoWjmt7NGRi-32" target="lBr7Zt-y_EoWjmt7NGRi-40" edge="1">
          <mxGeometry relative="1" as="geometry" />
        </mxCell>
        <mxCell id="lBr7Zt-y_EoWjmt7NGRi-32" value="Index" style="shape=cylinder3;whiteSpace=wrap;html=1;boundedLbl=1;backgroundOutline=1;size=15;fontSize=17;" parent="1" vertex="1">
          <mxGeometry x="817" y="191" width="60" height="80" as="geometry" />
        </mxCell>
        <mxCell id="lBr7Zt-y_EoWjmt7NGRi-33" style="edgeStyle=orthogonalEdgeStyle;rounded=0;orthogonalLoop=1;jettySize=auto;html=1;entryX=0;entryY=0.5;entryDx=0;entryDy=0;entryPerimeter=0;" parent="1" source="lBr7Zt-y_EoWjmt7NGRi-17" target="lBr7Zt-y_EoWjmt7NGRi-32" edge="1">
          <mxGeometry relative="1" as="geometry" />
        </mxCell>
        <mxCell id="lBr7Zt-y_EoWjmt7NGRi-36" style="edgeStyle=orthogonalEdgeStyle;rounded=0;orthogonalLoop=1;jettySize=auto;html=1;exitX=1;exitY=0.5;exitDx=0;exitDy=0;entryX=0;entryY=0.5;entryDx=0;entryDy=0;entryPerimeter=0;" parent="1" source="lBr7Zt-y_EoWjmt7NGRi-19" target="lBr7Zt-y_EoWjmt7NGRi-32" edge="1">
          <mxGeometry relative="1" as="geometry" />
        </mxCell>
        <mxCell id="lBr7Zt-y_EoWjmt7NGRi-37" style="edgeStyle=orthogonalEdgeStyle;rounded=0;orthogonalLoop=1;jettySize=auto;html=1;exitX=1;exitY=0.5;exitDx=0;exitDy=0;entryX=0;entryY=0.5;entryDx=0;entryDy=0;entryPerimeter=0;" parent="1" source="lBr7Zt-y_EoWjmt7NGRi-20" target="lBr7Zt-y_EoWjmt7NGRi-32" edge="1">
          <mxGeometry relative="1" as="geometry" />
        </mxCell>
        <mxCell id="lBr7Zt-y_EoWjmt7NGRi-38" value="semantic search" style="whiteSpace=wrap;html=1;rounded=1;fontSize=17;" parent="1" vertex="1">
          <mxGeometry x="767" y="128.25" width="160" height="30" as="geometry" />
        </mxCell>
        <mxCell id="lBr7Zt-y_EoWjmt7NGRi-45" style="edgeStyle=orthogonalEdgeStyle;rounded=0;orthogonalLoop=1;jettySize=auto;html=1;entryX=0.5;entryY=0;entryDx=0;entryDy=0;fontSize=17;" parent="1" source="lBr7Zt-y_EoWjmt7NGRi-39" target="lBr7Zt-y_EoWjmt7NGRi-38" edge="1">
          <mxGeometry relative="1" as="geometry" />
        </mxCell>
        <mxCell id="lBr7Zt-y_EoWjmt7NGRi-39" value="question embedding" style="whiteSpace=wrap;html=1;rounded=1;fontSize=17;" parent="1" vertex="1">
          <mxGeometry x="767" y="51" width="160" height="30" as="geometry" />
        </mxCell>
        <mxCell id="lBr7Zt-y_EoWjmt7NGRi-50" style="edgeStyle=orthogonalEdgeStyle;rounded=0;orthogonalLoop=1;jettySize=auto;html=1;entryX=0.5;entryY=1;entryDx=0;entryDy=0;fontSize=17;" parent="1" source="lBr7Zt-y_EoWjmt7NGRi-40" target="lBr7Zt-y_EoWjmt7NGRi-41" edge="1">
          <mxGeometry relative="1" as="geometry" />
        </mxCell>
        <mxCell id="lBr7Zt-y_EoWjmt7NGRi-40" value="ranked results" style="whiteSpace=wrap;html=1;rounded=1;fontSize=17;" parent="1" vertex="1">
          <mxGeometry x="981" y="215.75" width="120" height="30" as="geometry" />
        </mxCell>
        <mxCell id="lBr7Zt-y_EoWjmt7NGRi-51" style="edgeStyle=orthogonalEdgeStyle;rounded=0;orthogonalLoop=1;jettySize=auto;html=1;entryX=0.5;entryY=1;entryDx=0;entryDy=0;fontSize=17;" parent="1" source="lBr7Zt-y_EoWjmt7NGRi-41" target="lBr7Zt-y_EoWjmt7NGRi-42" edge="1">
          <mxGeometry relative="1" as="geometry" />
        </mxCell>
        <mxCell id="lBr7Zt-y_EoWjmt7NGRi-41" value="LLM" style="whiteSpace=wrap;html=1;rounded=1;fontSize=17;" parent="1" vertex="1">
          <mxGeometry x="981" y="131" width="120" height="30" as="geometry" />
        </mxCell>
        <mxCell id="lBr7Zt-y_EoWjmt7NGRi-56" style="edgeStyle=orthogonalEdgeStyle;rounded=0;orthogonalLoop=1;jettySize=auto;html=1;exitX=0.5;exitY=0;exitDx=0;exitDy=0;fontSize=17;" parent="1" source="lBr7Zt-y_EoWjmt7NGRi-42" target="lBr7Zt-y_EoWjmt7NGRi-43" edge="1">
          <mxGeometry relative="1" as="geometry">
            <Array as="points">
              <mxPoint x="1041" y="-52" />
            </Array>
          </mxGeometry>
        </mxCell>
        <mxCell id="lBr7Zt-y_EoWjmt7NGRi-42" value="Answer" style="whiteSpace=wrap;html=1;rounded=1;fontSize=17;" parent="1" vertex="1">
          <mxGeometry x="981" y="51" width="120" height="30" as="geometry" />
        </mxCell>
        <mxCell id="lBr7Zt-y_EoWjmt7NGRi-54" style="edgeStyle=orthogonalEdgeStyle;rounded=0;orthogonalLoop=1;jettySize=auto;html=1;entryX=1;entryY=0;entryDx=0;entryDy=0;fontSize=17;" parent="1" source="lBr7Zt-y_EoWjmt7NGRi-43" target="lBr7Zt-y_EoWjmt7NGRi-46" edge="1">
          <mxGeometry relative="1" as="geometry" />
        </mxCell>
        <mxCell id="lBr7Zt-y_EoWjmt7NGRi-43" value="" style="sketch=0;outlineConnect=0;fontColor=#232F3E;gradientColor=none;fillColor=#232F3D;strokeColor=none;dashed=0;verticalLabelPosition=bottom;verticalAlign=top;align=center;html=1;fontSize=17;fontStyle=0;aspect=fixed;pointerEvents=1;shape=mxgraph.aws4.users;" parent="1" vertex="1">
          <mxGeometry x="891" y="-91" width="78" height="78" as="geometry" />
        </mxCell>
        <mxCell id="lBr7Zt-y_EoWjmt7NGRi-47" value="&lt;pre style=&quot;font-size: 12px;&quot;&gt;0100&lt;br style=&quot;font-size: 12px;&quot;&gt;1011&lt;br style=&quot;font-size: 12px;&quot;&gt;0101&lt;/pre&gt;" style="whiteSpace=wrap;html=1;rounded=1;strokeColor=none;fontSize=12;fontStyle=1" parent="1" vertex="1">
          <mxGeometry x="845" y="6.38" width="40" height="42.75" as="geometry" />
        </mxCell>
        <mxCell id="lBr7Zt-y_EoWjmt7NGRi-48" style="edgeStyle=orthogonalEdgeStyle;rounded=0;orthogonalLoop=1;jettySize=auto;html=1;entryX=0.5;entryY=0;entryDx=0;entryDy=0;entryPerimeter=0;fontSize=17;" parent="1" source="lBr7Zt-y_EoWjmt7NGRi-38" target="lBr7Zt-y_EoWjmt7NGRi-32" edge="1">
          <mxGeometry relative="1" as="geometry" />
        </mxCell>
        <mxCell id="lBr7Zt-y_EoWjmt7NGRi-46" value="" style="shape=image;verticalLabelPosition=bottom;labelBackgroundColor=default;verticalAlign=top;aspect=fixed;imageAspect=0;image=data:image/png,iVBORw0KGgoAAAANSUhEUgAAALMAAACzCAYAAADCFC3zAAAAAXNSR0IArs4c6QAAAARnQU1BAACxjwv8YQUAAAAJcEhZcwAAFxEAABcRAcom8z8AACQVSURBVHhe7Z0J3BVV+cdftzAXXCg1XFHcABXXkkVNRBNLhWIRCzOkUEsklSVNECtBzDVBVMgl20REgVKhRRQlccFdqRTFXQsVc0l0er7zv5f/5fLcO2fmnDMz933n9/l8P358uXNm7r3PnTnn2U5ToVjaRGgn7C30FAYL5wtThdnC/cIzwivC28KHwkohKP2X/+fv/Duv4/WzhGsFxmE8xt1H4DybCoUKWauNcLAwVLhUuEVYJGCInwoYqE84z8PCbcKVwmnCIQLXVahQTa0r7CQcLowV5gkvCisEzdCyguvhurg+7uS9BK6b6y/UgrWe0F0YKXDXfVnQDCjvvCRw/aMEniS8r0ItQMx5uwoXCA8IywXNQBoV3s+DwkSB91nMuZuh9hO4cy0QPhE0Q2huMK9fKIwWDhAKNbA2FvoKtwqvC9oX3lJ4U2AhOVDg6VSoQbSLcIbwmFB2ixX8HzyV+FzOEnYVCuVUnYQLhecE7YssWJ3nhYsFPrdCOdHuAn5gHqXal1ZQn7eEK4TCqDMU/tUJwmuC9iUVxIObAU+2nYVCKQl3E3O+pYL2pRTY8YJwulC49TzrWIF8Bu1LKHDLfUIfoZBj8ei7TvhY0D74Aj/g/bhB2E0oZKlWwhChmFJkC1OPkwW+j0IJ1EGYIWgfbkE2zBQ6CoVi6HgBP6j2gRZkC0/JQUKhCG0hTBJaSv5Eo8L3c5WwpVBIEdUb8wXtwyvIJyRukcRVqEIkBLHI0D6wgnyzTBggFBKdK3wgaB9ULll77bWDz372s0Hr1q2DzTffPPjc5z4X0qZNm2CzzTYLNt5446BVq1bqsc0UahvHCGsJLVKthWsE7cPJFRhq165dg29961vBT37yk+A3v/lNcM899wTPPPNM8MorrwT//ve/g7fffjt46623gmXLlgWPP/54MHfu3GDatGnByJEjg969ewd77bVXSzDwaUKLixxuK9wuaB9ILuAue9xxxwXXXntt8Le//S147733Ahu99tprwbx584IJEyYEhx56aHM2bKrUtxNahMg3vlfQPohMYfpw4IEHBpdddlnw/PPPBytXriyZolvxw3jooYeC4cOHBzvvvLN6LQ0O3297oVmrs/C4oH0AmfKVr3wlmD59evDhhx+WTC4dvfTSS8FFF10UdOjQQb2uBuZRodmmleLCeVrQ3nhm7LvvvuEc+D//+U/JvLLRyy+/HIwdOzac3mjX2aA8KewvNCvtK9DBR3vDmbDRRhsFo0aNCv71r3+VzCkfevDBB4NjjjlGveYG5VmBDk3NQgRDeEPaG80E7sYsxvIqpjpMPTbZZBP1+hsQnsh7Cg0tFnuLBe0NZsLxxx8fPtIbQXfddVewyy67qO+jAXlIaNgqlq2FXCXSn3XWWcEHH3xQMhU74engDvrGG2+Eno/nnnsu9Dm/++67wX//+9/Sq+y1ZMmS4OCDD1bfTwOCPWAXDaUNhNz4kdddd93gZz/7Wck8kumdd94JFi1aFEydOjU4+eSTgy9/+cvBTjvtFGy11VbB5z//+TCwsuWWWwZbb7110Llz5zBQMmbMmOD2228Pnn322dIoycSP5Mgjj1TfWwOCHxr7aAjRxC83kb111lknmDhxYsks4osF2bnnnhveHT/zmc+o54iibdu2Qf/+/cMATNIF5+uvvx707Nlz1Zj8gPjRHHbYYUGfPn3CAM/AgQPD8xx99NFB9+7dg1133TXYcMMNV7uWnEAL34boiUeuhfYGMoG7YxLde++9oYFgNNq4ScHAzj///NC/HFcvvPBC8Ktf/SpYsGBB8Pe//z00cKY1H330UfDJJ5+EMP1hKrV8+fLwHE8//XS42L3wwguDr3/962GQhrwS7dpShlyOXIvst/cF7eJTZ8iQIeEXHEd8+YMHD/YebsaorrzySmdzeFMxXZo9e3bwwx/+MNhzzz3Va0sJ7KS/kEvtJeSmLSyPWZJ/4ohpwPbbb6+O5wvmwg8//HDpCtIVXp3f/e53YfQzo1wRGqpjN7kS3dwpTdcuOHW22GKLMPfBVDyShw4dqo6VBviT77jjjtLVpC+mJnPmzAnn2muttZZ6jR6hU2mudgOg1Em70Ey44oorSl9TtJhXHnXUUeo4acD8lWnN4sWLS1eUnT799NPg5ptvDvbff3/1Wj0yWciFjhPS2OPDiCOOOCJ4//33S19PfeHywsWmjZMGvXr1CubPn1+6mvyI/Gw8OBQZaNftAewHO8pURPjYY0O7wNThw//LX/5S+krqi0R63FraOL7BpXbjjTd6SzF1JQoMUlwkYkfYUybCn0wfBe3CMoFKEBN9/PHHwTe/+U11DJ8QVDnvvPNCl1qjiMhmitMwAm2ZbDZEpyHtgjKB4AABDhP9/Oc/V8fwBZ6CE088MXjsscdKV2CvFStWBE888UTwpz/9KbjllluCm266Kbzb451gMUd1TBJftia8QieddJL63jxA56RUtaOQm+kFEP0yESFpClG1MXzAVIaEIVuxDuDHwA+R4Mc+++wTbLPNNmEqa7UHgkgl4XUCNEQuhw0bFsyaNSvMI0kqAjNUxlSexxO461KbbvAYoJmediGZwJdHICBKfCH4VLUxXNOxY8dgypQp1pUrS5cuDSZPnhzWDa6//vrquUygJAwfOgb517/+tTR6PDHHP+2009TxHXOTkMp0o7fwkaBdRCaQn0xkK0qEgvlStTFcQeuB0aNHBy+++GLprMnEvJpK8N133109jw38KEiEuvPOO0tnMxcVOTwFtXEdgn15b6e7mUBeqnYBmUDWGonsUSKHoUuXLuoYLlhvvfXCXI44wRpNGAuRSB9GXA1GzVz4n//8Z+nsZsITRIRVG9Mh7GeIvXkTHeu1E6fKbrvtFnz/+98Prr/++uCRRx4xyh+eOXOmt+jWQQcdFNx2222lMyUXd8rKzLi0aN++fbhwjCN6gzBn18ZzyJmCF7Hoy6yFFm4t7nzMjQl2xFXfvn3VcW3YYYcdwrYEcXNAqkVyE3fILNM1ebKcc845sQoLuJl4Dn9jb+0E52IzHO2EXuHXP2LEiPBOkFRUgjCX1cZPAt6Q008/PfbjuVp4F376058GX/jCF9TzZAGhdaZkpkph/ozdORXbALDFlnYyL3CXwqVkW6WBrr76avUccSHRn0T4++67rzRyMuFVYTFKyy7tPFlzwgknGKcEPPXUU76nG+yC5XQbissF7URe6NGjR3D33XeXPi57ffvb31bPE4f99tsv7K9BMo6N6FHXCK0ETj31VONwO14XbQyHYH9OxKaRqWwYyd143LhxYXTLlRiLllva+UxgCjB+/PjgzTffLI2YTExJWLSmmLxjDQEaE+HdIECjjeEIZ3fniwTtBE5hRU0Y1rV4DCZJuCeyRo4z1dE24ovGKLbddlv1PHmGtYFpgOXSSy9Vx3DIRMFKqYStu3XrFraH9SGy6OJGzihp+uMf/1gaIbnIDf7Sl76knqNR+OIXv2jkrcHD1K5dO3UMR7AnulV3Ufx82sDOICOLdq++dOutt6rnrQV3oz//+c+lo5OJJB9cgbi7tHPYQDI/j/Q99tgjNS8I0ywT0YtaO94h7BybSBsLTwjaoE6g/i1p8gvha/yzUQWrv/71r9Vz14LU0KQij4JGM77aalHWhJ+93CuaKRTNFunVob3eFUzTqAyPEotbz2sCOshil7HVT9AGdALZXEkWVTzySLzBrYVPNMq7gGNfO38tKMmPK0LQv/jFL8KmMNqYtuy9996hJwWXnqZyRbnPFgLkYUeJgAtTRu14h2CXsbSOcJugDWYNj0n6PsQRRotvtrI+rV+/fqV/ra24xkxEL464Ux5yyCHqWLbgv73ggguMG8cQDsetqY1lC9+ZyVP0xz/+sXq8QygIwT6NRedOL0ESNrCJ24GTx+mAAQPWGIsmiFGKa8ysyk1EewAqW3zMi0nm/+53vxsm38cVwQ5fiUq//e1vS2epLWoaPYe4cdNhn8YaLWgDWRP3MU6vNtx22lhZGDO9Jrj7+GoKzp3VRbtdFtVnn312mNOinScJJk9Cpo4puCGxTyNtJNDLQBvECjwXteZ9mi6//PLQ36uNBWkaM0n23PF8FXh26tQp3J3K9TYUpKTyObnI42YhGFW/yPfLQlU73iF0E91QiFRXwfl2v0wv4nTuIUQa9QWkaczMjbXX20LDGu70Pt2TeHxIUbVdnLHANAlssSOBdrxDVgpdhEh5yY7jDZrq4osvVseoJk1jZvGpvT4ptNnl+uP8wG3v2nhdWODa7HBl4nO+5ppr1GMdM16oq1bCIkE7ODFEhkxzkEkSN20dm6Yx4xrTXp8EqjT+8Ic/lEaOFj51jIgiVvzKNGmxEf5wGicmKez93ve+VxqltljnaMc6hkqU9YWa6ia8K2gHJ8a0PzI5y3HyKBrNmHFv4Y82Ta/EHcl2btUh8XITGfp/2IhUVlJaK8eOgoy/qPOSz5FC21zsFHutKedeDKoxTPo30No1buW0D2Ou5We2MWbugNwJaahiqoULF4YtBeq5ub761a9ap8oyn/79738f5mBo56iGErGoXI0HHnggrS3gRgqq6GTuvEMR8XoT0atYO74eeTfmcjI/uRqmoiqGkLhpWHiDDTYIc4/jBqGqhYGyFfJ2222nnqcMQauo4AlNIFPKG5khqB34qbVy2l+ZO5JJVQZx/yQZV3k2ZnKomSKYisUZ3UuT7i7F50eqaZySJ00EqNizpVamIaH1V199tfRqXTSr8Z0vUuIlQa0RPFLQDkgMYV6TzvXE/bXjo8ijMRMw4A5Hz2cT4ZdlwcTjWxsvLkwXaNdlO58mdVbbFIjxo3Jq8NC4DNZEgN2uoXGC9uLEmLhx8HIwr9aOjyJPxkyVzCmnnBKrZpHsN6pPtPFs+cY3vhHcf//9pTMlEz8IPr/KWkVaAEdVAnHeTTfddLXr8ch5whqaK2gvTgR+VBMfKlE17XgT8mDMLNCSLsTwG9Mxn+N9dFpiEcb8e9myZaUzJhPTCsrZmMfjzYjKVKS3Ht+/dk0euEtYTbThd1pRQnjWpELh8MMPV483IWtjZv7I+HE3AaoWx+Nqo2i2+hwuILdl0qRJ1vNpduCimU6USEjSrsMT2O3mwiodIrwnaC9OBBXRUV8ypVKEc7XjTcjKmMt9lqMWQnGFl4DNN315AgjWmDSYtFXKLYOxW+x3lU4RtBcmxqT/G4k1NumCaRrzL3/5yzA1kx9pnNRM2ocRiOG/piLZnhRQ3G7V12cLKaukrj766KOls7kVUxCuXTu3R04VVsl5XwwTtxRdgbRjTUnTmMk+i9NPDm8GyVLlBin8l80s4+zQSiqorxa8PBHZt8T104VFrU1rh4RcIYRaS3BaVcJCgXqwesIl9bWvfU093pQ0jdlULOqoO2Q+rY3P35kfmyYNlbuCdujQQR3PFsZlP3DO40L0B8mgNwjbR2DHTZsIJG1oL0oEUaQnn3yy9PZ0kRdLX2XteFPyZsx4NEy7FZHzG6fpN0UBNDZ0vf1xGXzKLjr8u84uNIQ2y9hxGEF5VdBelAh+7VHNtgm/RoVOo8iLMROCpqN8XN8qVdyEouPkbDDXZc7rY0dVfOV0I7XpYUKnVm1sz7B1xA5CU2fhY0F7USJ4lEbF78mQs+3M6cOYqW4xFa7HSy65JHHQpwyZgmQWxkntdBk1rKZt27Zhd9IkbSD4PDzXAGpgv+G2xT1Lf3AGyShRXwzJKLZzq6yMGZfjjBkznHcrOuCAA8IuSKZ+a/KcfbY4YBrI+4wjvBm2C/uEYMdNJ1X8wQk4/6NW7TwukySHV5KFMePVoLDTV4SLTDvGJ43SVEzpSDF12YO6DO+T1sJxnhoEZzLYMHSw0HR+xR+cQNFnlMsHX6ptMkqaxkyNHqFhtiTTjnMNNZNnnnlmrNpAciLIydDGs4XdruLknZA5l2KyEZBb1DS14g9OoMbsH//4R+lt6SLtk8oL7XhT0jRmEti11/uGaUcc0VWIY3yExkk4ihNsIUc9xfnzNULTnIo/OAGHfNRuqcz3aNGlHW9Kmsackcsp3Hk1iQja0KMkSTvfetBcJsrtWhYBFJvcm5jMEsIeBNo/JoZ5X1TBJguFQYMGqcebkqYxx23A6ApyQmzEExL3X73+I3HBW2W6zyHbIfsIyyvcJzQ9W/EHZ5B3ESX6qGnHmtKSjRlfsElnzrJItu/Vq5d6jiQQHCp3I41S//791TEc87QQOpy1f7SCXUqjNHfuXKtfbUs2ZqYQ7IfITcN0uzNSCG644QZnGwPhizbRggULvAR5qqCEqumdij84g7tAVCsu5s02OQcmvZTJO9COrUWjGDPBifJrCEVz5zUVW1OQwmpbp4dr1cSFyI/t2GOPVcdwyHLBzz7YLAJNGr/YbCxOZ9AokW8QZ77YKMZMWmnl63jC0aAFl6epcJ995zvfCdc4lWPFgf6BJk8GFrKeq08+EMK+Xdo/WkPINUpUbyd9kzRDiXLmU8dGhQRzPJPSpEY15jKEoimojdPInS5SSftc8Jmy1UaUCI0zLdLGcAQh7aZPK/7gFJK0o0QqJDVw2vEm0NfMRHhPMMjKZuUajW7MZaiixkij6vXKstn4k5xrmvhEiSeHdrwjaPbp785s2m191qxZie/O3FEIaJiKOxZelFqlSfSu0NRoxgzcNZmr8vSLaj1A+kHShSHTlKj8dURxg3a8I8I7s5c5M2CgGEGU+KBtevpynhNPPDGcA5qKZic8Oap7ojUnYy5DQpfJDlra7gSm0GYhSuRk+8rHFsI5sxdvRpnevXtHejUQEUPbXguUJlESz2rdVDj1K5udNJdpRjW4KKOEd0g71gSewlGNb5hSuvR1VxF6M7z4mcvgX8TPaCKaxmhjxIVEJ0qTTH5EiNU4pUksUGptsdvoxmwSFsdvrx1rAk84eoBE6Uc/+pF6vANoLecnAliJiQsNUYdG50ttjCRwF4jjfyWiViszrDDmaCjgjRJV7tqxDggjgM5zM6rBB8rj3ES0v43yOMQBHzONAG27ZBbGHA3lXFHeE7Zx9tG9SQhzM2ZX/MEbPXv2NI7lk3fguhq5XJoUNa+rpbxlzeXRmE16N1PcYNP4pw5UaDddW/EHb5DXSn6rqWi0wrYH2lg2kOeLK880n6GsvOUz59GYacdLcW890YrAZk+VOoT5zM4rTWpB5UEc9xlTA1/5sHG7ZFLxQeUHFSDaeK6hBOqMM86oWWmSR2PG7RaV60yKA5vYa8dbEnYDdV4DWA+mG3Ea+DEt4Ev1sRMqARfGjpNKSWINPwSbfIZ6MG7fvn0jE3jyaMysT6LakOE2te2XUoOwBtB5dXYUVO+ahlnLInpE9bI2ni077rhjOAUy6VqKqJ7m8e/6elj4mlZn59GY6bsR1caYSKOnbqc9BPd9M6Jg/lzLn1tPfBAs4sr921zTtWvXWP3kSHJiz0LbZjYcH7dvRh6NmaBXVI0gnaxIENOOtwD7DftmOO9oZAKdb5IKXzDhUx89zQjyEAmLs9kkixo64CftaMTxcZVHY2YLjKgKbqZ0HjapX9XRyHmvORPw29oK37Wv8CgtBdgG2GTbt7LoHWfaDJLXxQnoVCuPxswdN6rFBF4qDxvFY79hrznnXUCj4I4a5cIxFRtEUgrUsWNH9Vy2kHNAmqlpl0zyDzCcWo9SMtO4XtMuoLWUR2MmlTfqfZFd57K4tsSqLqDIeX/mejA3ddVCtSxcWJQC+Wo8goswTpdM5vf0Y67uzxwnCYrihlotG/JozCzso8ROWNqxlqzqz4ycd86vx9ChQ2N7M0yFH5t0UNP9t+NAWJ4umaZ9IxBzbwwvzhyc9FTKmZi/kwClKW/GzKKeessosaOCdrwl2O8qOd/TpB54AHxrzpw54T6E2vlt4e7PXTZO6ywTsdInWWerrbZada5aa4u8GTMBk6hWuLgc2UZDO96CNfY0YbeeZYL2YudQzhMluk+aVC/UE7kgV111la/wadgMhfmv7VOG4xlHC983ijHTKDFKy5cv97G2WWO3KeR0H8BaEMmLmnvyC2YxwUKRfTdMqrzrCY/EiBEjvDQ9JAOMCmWywZIs6ubPn1+32LZRjNmkFpMkIw8V2mvsA4ic79CqQW5DVE4E/TQqG2njAbjuuuust9BduHChty6Z+ItNswLRkiVLwmOImmnjlWkEY6bZuskNx7aDVQ3C7p/Vcr53tgaFpFHxe4pgtZAnVcCmedG1xA+CKQzVy9XjJ6Fbt26h1+Ejw6oWHrVEP019rY1gzGPGjCmNUFs8bdmqWDveEnXvbCKBtDjSDnAGLiq2gKgnfuWUPmnHs9s+JetxPAqauPtjVORlaOeJgnk4xa9x7sa4pbp06aKOV4u8G3O7du2CpUuXlkaoLSrEiXhqY1iAvWK3a2g94VZBO8gZtISKit/jJai19VgZ8hnYzZQ7nY1IM6WrUtTjvgwOfzLt4myqQwYcmXBJMu3ybsy1qtmrxZpFO96SGQJ2q2qUoB3kDFw4ixYtKr1FXSTcmN7BmI6wV/PKlStLRycTCzEWcto5AD8qleamxbmIKCfd9m2qzvNszEcccUQYgY0SC3DbTYxqMFKoqW7Cu4J2oBMIPETtf8f8s55haeARwCBtxHyaL70635bUTCpNTFIzEV6NyZMnO2lHlVdj5skYNV0si4xAbQxLsNOuQk21ErwnHZn0oBs8eLB6bD2YAgwfPtw674MnA4sajJoVeJypDE3WbXcEqCSPxkx01SRWgFj/MK/WxrEEO8Ve62q8oB3sDBOfJJEw7VgTWJyxOWWcxZmmOH5jPDSkjrr2o9L/Q1NWxsx0i3a6pqJPtzaOAy4QItVFoAmdNoATTBqRz5w507pBNfNuxrGdT9cTIWhSRT1VHNd8imVhzAR2WHSbiiCJbZeqGmCfBwqR2khYKGiDOIFmflHV0fQls63gAL4ACgHi7KtnIub1NDTp1KmTel5bGJcko1pPh7SNGW+PqecCcd2Vbc8cQ6+XDQUjefVq0MPCpH8w3gPt+CRw5xw5cqR1aBzRhNBX1ThV2Ty5li1bVjqbrjSNmR1gTXowV4ptKrSxHDFaMNbewluCNpA13C1pAB4lkm+0423Aw0Av4iT51KRmErDxsT8Hc+2BAwcap4qmZcxsrhOnGz9irxpP0wvALrFPY60jeK0+MQmBUoLja19oQqskB5kI7wZeDQ/lPiF4P0w8PJVigauNVQsTY67cFQp3JF2cTN2RZVEDSDOYynM7ZqawthBL/QRtMCd0797dKHGIxZV2vAvoXEkSfK3QOPNier1FRSOTQiidFrpJvC5xH+O1XHxlkYbKZ0EaAT7y5Qkiq+TUVCaIeQK7jK2NhccFbUBrSO80iaYRNrbdFSkKkp/Gjh0bGjVfKsY1e/bsMBCjvd4W3jsbt0dtyVxPNCnUxq5F1O4C3IGZRiUxYoRXh0Qw7dwOeUJoLSTSGYI2qBNMXHTIxuccB4waLwJFrCQ0aa+xgXkxLXtJRbURC9C4bRb4cfoS00GPnotKsMfE2lF4QdAGtob5cFRpOqLTkKcuOKlByik5JLa68847Y89JMXyTBXcScTenQFk7r2OoKFEz5OJooqAN7gQWMiaaN2+ejxJ17zBFYn4bZyszTSTz0/gmyWfATcNmSlNLLFqTptAm4CLBWrsJbwraCayhuw1l+Sby7Lt0CkZHk3OM0Ea0JiBRx2bdwKLMZGszU5ELTlsHm62iY4L9YYdO5LWvhsn2AQjvBwaijZEn6LJ09913l646uZiWuJhemezHaCq6MHmqGKkH9udMXu/OVJ9ElamXRbDDZlckn9B3mECP7V2wXKvoKmmJa7IVgZMf/OAHxkUMDnF6Vy5rgqCdzAkmm7qXxYLQQ/+FxNDngseubR8N3JBUsbgsLyKMH6dfXrUWL14cNlmvtQloCmB3zkWXxaWCdkJrSC2McwchoME2XB5K141hzkj3JBf1iCTx+Mj7xR8dVyR50dq3X79+3rIBDcHewu6ePjRM0E7qBMLFdImMI+aVvkLe9ejRo4dxOLye8Aj46rzED51igShxY6Cn3bRp08I1ia+mOQnA3ryJ6IvX9FBW3qbejbJwO9EDzkegoxoCKlOmTAlWrFhROnsykVBEYo+PnnhlWKiZ1OjhLfHVcNIC7CxxtM9Uxwje9tsGHo0mX0K1CCgQgvZh1GTbuZgXk9p59tlnh6me2nlcQSU4rQ2ixP4ynvYYsQH7OlbwLkq7bxC0i3AG7VHjZmyVRcEstYDkTddqe2UCqZ7c3SZNmmRdV0gxAqmnvvpIV0MBhEmFDQ0mfT4dEnKjsK6QighzE17ULsQZrOzj7tdXKZJfmJPyw2Beyt2VfnPV+cgsPgly4CKkeSH5EzSIYSXvoo80+b2+kvk1eI+mW9SRQ62NkSE08NxJSFVDBO1inILDn9W+C+GiwodL0g0LR7wnFIxOnz49DJdTOm87F64UXg7m8j6S+WvBD9N081AWfSlG8UzBrlIXjwESpbULcgqPzDh79WUt8jDo35yFb3bIkCHGBbyDBg1Sx8gQCkIoDMlEuwjepxtAJ1DunnkWc3wqOrJaUNE4x3QvwyRppJ7BjrCnTHWc8KmgXaBTWrduHZZbxdkvLy3RGJ2e0jzmtWv3DXNyKj1MxDogzTm8AdgPdpQLTRa0i/QC9WnMc33tixJHNIFkXp9BzsIqqGKP4zIk2qiNkyHYT27URqCXgXahXsDldvTRR4euJZ9NXqJ0xx13+GjVagRPgWHDhsXai5xgTcYh6mqwmzW2cchabPf6sqBdsDfwFJBySe8zcgqyEF4BOmJq1+cLkuLjZsMxn6aQWBsvI9gZONwmOI/qK7wvaBfuHRaJFIrSkst0IeRKRCyptG7fvr16ba7AlcbWc/SVjiMWp7gJtTEzAjvpL+Ra5wraxacGd2uSj5iGTJgwIdw6gnxpuhlh5LSOYmrCnJsvmcAM/mUWUOxjzZ4rtBiI6iqkCV/2uHHjnBs1UwPSZOlAn0SE0LVxM2SMkHvhf75a0N5AZhDho0SLRCb2rabhCdEv+tD16dMn3PqL/hiV88mePXuGUcQkwtdM+HrAgAFB27ZtV7sWU8gxIXKJB4doZFKNHz9eHT9DrhFqdrzPmzYQ2M9YeyMNBfNxkwryeuKpwNSHhjYEgJgOYeBkqhF6ZjcBAizczQ899NCwcJV0TObittMlnkxsV6e9t4yYI2AfDaW2QqoeDl+QbOSyuplpDSF6FqxMa6gw4U7O9CdpclW1GGvUqFHq+8kQ7GFroSHVXvDeiT8N6FVBimkjiHk70xvtfWTIQwL20NDaQ3hS0N5gQ0EEko3MXZbtuxaLXYJK2vVnyNPCnkKz0D7CM4L2RhsOCgDoCp8n0V+Dmkh+cNo1Z8izAt9/s9K+Ao3vtDfccLBwo/LERfNyG5FnQRori0rtOjPmKWF/oVmqo/CIoL3xhqRDhw7h1CPt6CMLPDp7ptB5MymLhU5CsxaLgHsE7QNoWFgg0l+C6YftLle1RKCHrX3pms/mQzYlYZ65V9hZaBHaRmgWfuhqqKfDlUfFM4uxpEGXsvhhsLnQ1KlTw2pufNLaeXPELGFboUWJMvIpgvaBNAuI4HXu3DlM0cTnSyCEAgN6gxAqJy8bfzMNvgnMEFwhL5pQOpUqGC93YObn2vg5hMjeJkKL1FrCOUJmyUlpQsomBo7HgVYD3GUJn/PfNm3ahKmkJBIl2TA+Yz4UyMnh+2zxItvOW1PzAq9Q7jRAKFShzsJ8QfvACvLJAmE/oZCiLYQrBa/bHRdYw/dDqdOWQqEIHS88J2gfZEG20JnzBKFQDO0u3CpoH2hBNtDXotkHQnyplXCy8JKgfbgF6cDifKjA91HIUtylrxc+FrQPu8APKwU+912FQo7VR2gWCf8NAJ4KPu9CHrWpwE6d3rakaOEwpRgutNhIXhai7el44TVB+1IK4sGuThcKqbeTLfT/Yj59sfC6oH1JBfXBiK8QCi9FjtRBuEBYImhfWsHqPC9cIpBjXiinoqs/uxQ9KhSRxNWh2+ZjwplC4aFoIJFi2k8g8NLS59VvCAQ8BgrFwq7BRf3hKIEKiJZyt+YujBtztNBs6/BasrhbdxGYW9PPY7mgGUKj8rZAf4qJwoFCcRduIaLXWTdhhHCz0Kghc657usCT5yChYXq4FfIjNoWh0PZwge6UcwWSzt8VNAPKihUC18X1jROOErju1PbMK9SYYjeAQ4RThMuEGQJTk1cE33u4MD7neVig8Jcc79MErid3XeYLNaaYg7LL/t7CYcJggTskhZxUJbPgohUVOwgwf6U2rpwcxX/5f/7Ov/O6+wSO43jGYTzGZXzOQ+i+kJGamv4HiFphabMKOKQAAAAASUVORK5CYII=;fontSize=17;" parent="1" vertex="1">
          <mxGeometry x="808" y="8.25" width="39" height="39" as="geometry" />
        </mxCell>
        <mxCell id="lBr7Zt-y_EoWjmt7NGRi-58" value="What is an&lt;br style=&quot;font-size: 17px;&quot;&gt;8D-Report?" style="shape=callout;whiteSpace=wrap;html=1;perimeter=calloutPerimeter;fontSize=17;" parent="1" vertex="1">
          <mxGeometry x="870" y="-159" width="120" height="80" as="geometry" />
        </mxCell>
        <mxCell id="lBr7Zt-y_EoWjmt7NGRi-60" value="" style="shape=image;verticalLabelPosition=bottom;labelBackgroundColor=default;verticalAlign=top;aspect=fixed;imageAspect=0;image=data:image/png,iVBORw0KGgoAAAANSUhEUgAAALMAAACzCAYAAADCFC3zAAAAAXNSR0IArs4c6QAAAARnQU1BAACxjwv8YQUAAAAJcEhZcwAAFxEAABcRAcom8z8AACQVSURBVHhe7Z0J3BVV+cdftzAXXCg1XFHcABXXkkVNRBNLhWIRCzOkUEsklSVNECtBzDVBVMgl20REgVKhRRQlccFdqRTFXQsVc0l0er7zv5f/5fLcO2fmnDMz933n9/l8P358uXNm7r3PnTnn2U5ToVjaRGgn7C30FAYL5wtThdnC/cIzwivC28KHwkohKP2X/+fv/Duv4/WzhGsFxmE8xt1H4DybCoUKWauNcLAwVLhUuEVYJGCInwoYqE84z8PCbcKVwmnCIQLXVahQTa0r7CQcLowV5gkvCisEzdCyguvhurg+7uS9BK6b6y/UgrWe0F0YKXDXfVnQDCjvvCRw/aMEniS8r0ItQMx5uwoXCA8IywXNQBoV3s+DwkSB91nMuZuh9hO4cy0QPhE0Q2huMK9fKIwWDhAKNbA2FvoKtwqvC9oX3lJ4U2AhOVDg6VSoQbSLcIbwmFB2ixX8HzyV+FzOEnYVCuVUnYQLhecE7YssWJ3nhYsFPrdCOdHuAn5gHqXal1ZQn7eEK4TCqDMU/tUJwmuC9iUVxIObAU+2nYVCKQl3E3O+pYL2pRTY8YJwulC49TzrWIF8Bu1LKHDLfUIfoZBj8ei7TvhY0D74Aj/g/bhB2E0oZKlWwhChmFJkC1OPkwW+j0IJ1EGYIWgfbkE2zBQ6CoVi6HgBP6j2gRZkC0/JQUKhCG0hTBJaSv5Eo8L3c5WwpVBIEdUb8wXtwyvIJyRukcRVqEIkBLHI0D6wgnyzTBggFBKdK3wgaB9ULll77bWDz372s0Hr1q2DzTffPPjc5z4X0qZNm2CzzTYLNt5446BVq1bqsc0UahvHCGsJLVKthWsE7cPJFRhq165dg29961vBT37yk+A3v/lNcM899wTPPPNM8MorrwT//ve/g7fffjt46623gmXLlgWPP/54MHfu3GDatGnByJEjg969ewd77bVXSzDwaUKLixxuK9wuaB9ILuAue9xxxwXXXntt8Le//S147733Ahu99tprwbx584IJEyYEhx56aHM2bKrUtxNahMg3vlfQPohMYfpw4IEHBpdddlnw/PPPBytXriyZolvxw3jooYeC4cOHBzvvvLN6LQ0O3297oVmrs/C4oH0AmfKVr3wlmD59evDhhx+WTC4dvfTSS8FFF10UdOjQQb2uBuZRodmmleLCeVrQ3nhm7LvvvuEc+D//+U/JvLLRyy+/HIwdOzac3mjX2aA8KewvNCvtK9DBR3vDmbDRRhsFo0aNCv71r3+VzCkfevDBB4NjjjlGveYG5VmBDk3NQgRDeEPaG80E7sYsxvIqpjpMPTbZZBP1+hsQnsh7Cg0tFnuLBe0NZsLxxx8fPtIbQXfddVewyy67qO+jAXlIaNgqlq2FXCXSn3XWWcEHH3xQMhU74engDvrGG2+Eno/nnnsu9Dm/++67wX//+9/Sq+y1ZMmS4OCDD1bfTwOCPWAXDaUNhNz4kdddd93gZz/7Wck8kumdd94JFi1aFEydOjU4+eSTgy9/+cvBTjvtFGy11VbB5z//+TCwsuWWWwZbb7110Llz5zBQMmbMmOD2228Pnn322dIoycSP5Mgjj1TfWwOCHxr7aAjRxC83kb111lknmDhxYsks4osF2bnnnhveHT/zmc+o54iibdu2Qf/+/cMATNIF5+uvvx707Nlz1Zj8gPjRHHbYYUGfPn3CAM/AgQPD8xx99NFB9+7dg1133TXYcMMNV7uWnEAL34boiUeuhfYGMoG7YxLde++9oYFgNNq4ScHAzj///NC/HFcvvPBC8Ktf/SpYsGBB8Pe//z00cKY1H330UfDJJ5+EMP1hKrV8+fLwHE8//XS42L3wwguDr3/962GQhrwS7dpShlyOXIvst/cF7eJTZ8iQIeEXHEd8+YMHD/YebsaorrzySmdzeFMxXZo9e3bwwx/+MNhzzz3Va0sJ7KS/kEvtJeSmLSyPWZJ/4ohpwPbbb6+O5wvmwg8//HDpCtIVXp3f/e53YfQzo1wRGqpjN7kS3dwpTdcuOHW22GKLMPfBVDyShw4dqo6VBviT77jjjtLVpC+mJnPmzAnn2muttZZ6jR6hU2mudgOg1Em70Ey44oorSl9TtJhXHnXUUeo4acD8lWnN4sWLS1eUnT799NPg5ptvDvbff3/1Wj0yWciFjhPS2OPDiCOOOCJ4//33S19PfeHywsWmjZMGvXr1CubPn1+6mvyI/Gw8OBQZaNftAewHO8pURPjYY0O7wNThw//LX/5S+krqi0R63FraOL7BpXbjjTd6SzF1JQoMUlwkYkfYUybCn0wfBe3CMoFKEBN9/PHHwTe/+U11DJ8QVDnvvPNCl1qjiMhmitMwAm2ZbDZEpyHtgjKB4AABDhP9/Oc/V8fwBZ6CE088MXjsscdKV2CvFStWBE888UTwpz/9KbjllluCm266Kbzb451gMUd1TBJftia8QieddJL63jxA56RUtaOQm+kFEP0yESFpClG1MXzAVIaEIVuxDuDHwA+R4Mc+++wTbLPNNmEqa7UHgkgl4XUCNEQuhw0bFsyaNSvMI0kqAjNUxlSexxO461KbbvAYoJmediGZwJdHICBKfCH4VLUxXNOxY8dgypQp1pUrS5cuDSZPnhzWDa6//vrquUygJAwfOgb517/+tTR6PDHHP+2009TxHXOTkMp0o7fwkaBdRCaQn0xkK0qEgvlStTFcQeuB0aNHBy+++GLprMnEvJpK8N133109jw38KEiEuvPOO0tnMxcVOTwFtXEdgn15b6e7mUBeqnYBmUDWGonsUSKHoUuXLuoYLlhvvfXCXI44wRpNGAuRSB9GXA1GzVz4n//8Z+nsZsITRIRVG9Mh7GeIvXkTHeu1E6fKbrvtFnz/+98Prr/++uCRRx4xyh+eOXOmt+jWQQcdFNx2222lMyUXd8rKzLi0aN++fbhwjCN6gzBn18ZzyJmCF7Hoy6yFFm4t7nzMjQl2xFXfvn3VcW3YYYcdwrYEcXNAqkVyE3fILNM1ebKcc845sQoLuJl4Dn9jb+0E52IzHO2EXuHXP2LEiPBOkFRUgjCX1cZPAt6Q008/PfbjuVp4F376058GX/jCF9TzZAGhdaZkpkph/ozdORXbALDFlnYyL3CXwqVkW6WBrr76avUccSHRn0T4++67rzRyMuFVYTFKyy7tPFlzwgknGKcEPPXUU76nG+yC5XQbissF7URe6NGjR3D33XeXPi57ffvb31bPE4f99tsv7K9BMo6N6FHXCK0ETj31VONwO14XbQyHYH9OxKaRqWwYyd143LhxYXTLlRiLllva+UxgCjB+/PjgzTffLI2YTExJWLSmmLxjDQEaE+HdIECjjeEIZ3fniwTtBE5hRU0Y1rV4DCZJuCeyRo4z1dE24ovGKLbddlv1PHmGtYFpgOXSSy9Vx3DIRMFKqYStu3XrFraH9SGy6OJGzihp+uMf/1gaIbnIDf7Sl76knqNR+OIXv2jkrcHD1K5dO3UMR7AnulV3Ufx82sDOICOLdq++dOutt6rnrQV3oz//+c+lo5OJJB9cgbi7tHPYQDI/j/Q99tgjNS8I0ywT0YtaO94h7BybSBsLTwjaoE6g/i1p8gvha/yzUQWrv/71r9Vz14LU0KQij4JGM77aalHWhJ+93CuaKRTNFunVob3eFUzTqAyPEotbz2sCOshil7HVT9AGdALZXEkWVTzySLzBrYVPNMq7gGNfO38tKMmPK0LQv/jFL8KmMNqYtuy9996hJwWXnqZyRbnPFgLkYUeJgAtTRu14h2CXsbSOcJugDWYNj0n6PsQRRotvtrI+rV+/fqV/ra24xkxEL464Ux5yyCHqWLbgv73ggguMG8cQDsetqY1lC9+ZyVP0xz/+sXq8QygIwT6NRedOL0ESNrCJ24GTx+mAAQPWGIsmiFGKa8ysyk1EewAqW3zMi0nm/+53vxsm38cVwQ5fiUq//e1vS2epLWoaPYe4cdNhn8YaLWgDWRP3MU6vNtx22lhZGDO9Jrj7+GoKzp3VRbtdFtVnn312mNOinScJJk9Cpo4puCGxTyNtJNDLQBvECjwXteZ9mi6//PLQ36uNBWkaM0n23PF8FXh26tQp3J3K9TYUpKTyObnI42YhGFW/yPfLQlU73iF0E91QiFRXwfl2v0wv4nTuIUQa9QWkaczMjbXX20LDGu70Pt2TeHxIUbVdnLHANAlssSOBdrxDVgpdhEh5yY7jDZrq4osvVseoJk1jZvGpvT4ptNnl+uP8wG3v2nhdWODa7HBl4nO+5ppr1GMdM16oq1bCIkE7ODFEhkxzkEkSN20dm6Yx4xrTXp8EqjT+8Ic/lEaOFj51jIgiVvzKNGmxEf5wGicmKez93ve+VxqltljnaMc6hkqU9YWa6ia8K2gHJ8a0PzI5y3HyKBrNmHFv4Y82Ta/EHcl2btUh8XITGfp/2IhUVlJaK8eOgoy/qPOSz5FC21zsFHutKedeDKoxTPo30No1buW0D2Ou5We2MWbugNwJaahiqoULF4YtBeq5ub761a9ap8oyn/79738f5mBo56iGErGoXI0HHnggrS3gRgqq6GTuvEMR8XoT0atYO74eeTfmcjI/uRqmoiqGkLhpWHiDDTYIc4/jBqGqhYGyFfJ2222nnqcMQauo4AlNIFPKG5khqB34qbVy2l+ZO5JJVQZx/yQZV3k2ZnKomSKYisUZ3UuT7i7F50eqaZySJ00EqNizpVamIaH1V199tfRqXTSr8Z0vUuIlQa0RPFLQDkgMYV6TzvXE/bXjo8ijMRMw4A5Hz2cT4ZdlwcTjWxsvLkwXaNdlO58mdVbbFIjxo3Jq8NC4DNZEgN2uoXGC9uLEmLhx8HIwr9aOjyJPxkyVzCmnnBKrZpHsN6pPtPFs+cY3vhHcf//9pTMlEz8IPr/KWkVaAEdVAnHeTTfddLXr8ch5whqaK2gvTgR+VBMfKlE17XgT8mDMLNCSLsTwG9Mxn+N9dFpiEcb8e9myZaUzJhPTCsrZmMfjzYjKVKS3Ht+/dk0euEtYTbThd1pRQnjWpELh8MMPV483IWtjZv7I+HE3AaoWx+Nqo2i2+hwuILdl0qRJ1vNpduCimU6USEjSrsMT2O3mwiodIrwnaC9OBBXRUV8ypVKEc7XjTcjKmMt9lqMWQnGFl4DNN315AgjWmDSYtFXKLYOxW+x3lU4RtBcmxqT/G4k1NumCaRrzL3/5yzA1kx9pnNRM2ocRiOG/piLZnhRQ3G7V12cLKaukrj766KOls7kVUxCuXTu3R04VVsl5XwwTtxRdgbRjTUnTmMk+i9NPDm8GyVLlBin8l80s4+zQSiqorxa8PBHZt8T104VFrU1rh4RcIYRaS3BaVcJCgXqwesIl9bWvfU093pQ0jdlULOqoO2Q+rY3P35kfmyYNlbuCdujQQR3PFsZlP3DO40L0B8mgNwjbR2DHTZsIJG1oL0oEUaQnn3yy9PZ0kRdLX2XteFPyZsx4NEy7FZHzG6fpN0UBNDZ0vf1xGXzKLjr8u84uNIQ2y9hxGEF5VdBelAh+7VHNtgm/RoVOo8iLMROCpqN8XN8qVdyEouPkbDDXZc7rY0dVfOV0I7XpYUKnVm1sz7B1xA5CU2fhY0F7USJ4lEbF78mQs+3M6cOYqW4xFa7HSy65JHHQpwyZgmQWxkntdBk1rKZt27Zhd9IkbSD4PDzXAGpgv+G2xT1Lf3AGyShRXwzJKLZzq6yMGZfjjBkznHcrOuCAA8IuSKZ+a/KcfbY4YBrI+4wjvBm2C/uEYMdNJ1X8wQk4/6NW7TwukySHV5KFMePVoLDTV4SLTDvGJ43SVEzpSDF12YO6DO+T1sJxnhoEZzLYMHSw0HR+xR+cQNFnlMsHX6ptMkqaxkyNHqFhtiTTjnMNNZNnnnlmrNpAciLIydDGs4XdruLknZA5l2KyEZBb1DS14g9OoMbsH//4R+lt6SLtk8oL7XhT0jRmEti11/uGaUcc0VWIY3yExkk4ihNsIUc9xfnzNULTnIo/OAGHfNRuqcz3aNGlHW9Kmsackcsp3Hk1iQja0KMkSTvfetBcJsrtWhYBFJvcm5jMEsIeBNo/JoZ5X1TBJguFQYMGqcebkqYxx23A6ApyQmzEExL3X73+I3HBW2W6zyHbIfsIyyvcJzQ9W/EHZ5B3ESX6qGnHmtKSjRlfsElnzrJItu/Vq5d6jiQQHCp3I41S//791TEc87QQOpy1f7SCXUqjNHfuXKtfbUs2ZqYQ7IfITcN0uzNSCG644QZnGwPhizbRggULvAR5qqCEqumdij84g7tAVCsu5s02OQcmvZTJO9COrUWjGDPBifJrCEVz5zUVW1OQwmpbp4dr1cSFyI/t2GOPVcdwyHLBzz7YLAJNGr/YbCxOZ9AokW8QZ77YKMZMWmnl63jC0aAFl6epcJ995zvfCdc4lWPFgf6BJk8GFrKeq08+EMK+Xdo/WkPINUpUbyd9kzRDiXLmU8dGhQRzPJPSpEY15jKEoimojdPInS5SSftc8Jmy1UaUCI0zLdLGcAQh7aZPK/7gFJK0o0QqJDVw2vEm0NfMRHhPMMjKZuUajW7MZaiixkij6vXKstn4k5xrmvhEiSeHdrwjaPbp785s2m191qxZie/O3FEIaJiKOxZelFqlSfSu0NRoxgzcNZmr8vSLaj1A+kHShSHTlKj8dURxg3a8I8I7s5c5M2CgGEGU+KBtevpynhNPPDGcA5qKZic8Oap7ojUnYy5DQpfJDlra7gSm0GYhSuRk+8rHFsI5sxdvRpnevXtHejUQEUPbXguUJlESz2rdVDj1K5udNJdpRjW4KKOEd0g71gSewlGNb5hSuvR1VxF6M7z4mcvgX8TPaCKaxmhjxIVEJ0qTTH5EiNU4pUksUGptsdvoxmwSFsdvrx1rAk84eoBE6Uc/+pF6vANoLecnAliJiQsNUYdG50ttjCRwF4jjfyWiViszrDDmaCjgjRJV7tqxDggjgM5zM6rBB8rj3ES0v43yOMQBHzONAG27ZBbGHA3lXFHeE7Zx9tG9SQhzM2ZX/MEbPXv2NI7lk3fguhq5XJoUNa+rpbxlzeXRmE16N1PcYNP4pw5UaDddW/EHb5DXSn6rqWi0wrYH2lg2kOeLK880n6GsvOUz59GYacdLcW890YrAZk+VOoT5zM4rTWpB5UEc9xlTA1/5sHG7ZFLxQeUHFSDaeK6hBOqMM86oWWmSR2PG7RaV60yKA5vYa8dbEnYDdV4DWA+mG3Ea+DEt4Ev1sRMqARfGjpNKSWINPwSbfIZ6MG7fvn0jE3jyaMysT6LakOE2te2XUoOwBtB5dXYUVO+ahlnLInpE9bI2ni077rhjOAUy6VqKqJ7m8e/6elj4mlZn59GY6bsR1caYSKOnbqc9BPd9M6Jg/lzLn1tPfBAs4sr921zTtWvXWP3kSHJiz0LbZjYcH7dvRh6NmaBXVI0gnaxIENOOtwD7DftmOO9oZAKdb5IKXzDhUx89zQjyEAmLs9kkixo64CftaMTxcZVHY2YLjKgKbqZ0HjapX9XRyHmvORPw29oK37Wv8CgtBdgG2GTbt7LoHWfaDJLXxQnoVCuPxswdN6rFBF4qDxvFY79hrznnXUCj4I4a5cIxFRtEUgrUsWNH9Vy2kHNAmqlpl0zyDzCcWo9SMtO4XtMuoLWUR2MmlTfqfZFd57K4tsSqLqDIeX/mejA3ddVCtSxcWJQC+Wo8goswTpdM5vf0Y67uzxwnCYrihlotG/JozCzso8ROWNqxlqzqz4ycd86vx9ChQ2N7M0yFH5t0UNP9t+NAWJ4umaZ9IxBzbwwvzhyc9FTKmZi/kwClKW/GzKKeessosaOCdrwl2O8qOd/TpB54AHxrzpw54T6E2vlt4e7PXTZO6ywTsdInWWerrbZada5aa4u8GTMBk6hWuLgc2UZDO96CNfY0YbeeZYL2YudQzhMluk+aVC/UE7kgV111la/wadgMhfmv7VOG4xlHC983ijHTKDFKy5cv97G2WWO3KeR0H8BaEMmLmnvyC2YxwUKRfTdMqrzrCY/EiBEjvDQ9JAOMCmWywZIs6ubPn1+32LZRjNmkFpMkIw8V2mvsA4ic79CqQW5DVE4E/TQqG2njAbjuuuust9BduHChty6Z+ItNswLRkiVLwmOImmnjlWkEY6bZuskNx7aDVQ3C7p/Vcr53tgaFpFHxe4pgtZAnVcCmedG1xA+CKQzVy9XjJ6Fbt26h1+Ejw6oWHrVEP019rY1gzGPGjCmNUFs8bdmqWDveEnXvbCKBtDjSDnAGLiq2gKgnfuWUPmnHs9s+JetxPAqauPtjVORlaOeJgnk4xa9x7sa4pbp06aKOV4u8G3O7du2CpUuXlkaoLSrEiXhqY1iAvWK3a2g94VZBO8gZtISKit/jJai19VgZ8hnYzZQ7nY1IM6WrUtTjvgwOfzLt4myqQwYcmXBJMu3ybsy1qtmrxZpFO96SGQJ2q2qUoB3kDFw4ixYtKr1FXSTcmN7BmI6wV/PKlStLRycTCzEWcto5AD8qleamxbmIKCfd9m2qzvNszEcccUQYgY0SC3DbTYxqMFKoqW7Cu4J2oBMIPETtf8f8s55haeARwCBtxHyaL70635bUTCpNTFIzEV6NyZMnO2lHlVdj5skYNV0si4xAbQxLsNOuQk21ErwnHZn0oBs8eLB6bD2YAgwfPtw674MnA4sajJoVeJypDE3WbXcEqCSPxkx01SRWgFj/MK/WxrEEO8Ve62q8oB3sDBOfJJEw7VgTWJyxOWWcxZmmOH5jPDSkjrr2o9L/Q1NWxsx0i3a6pqJPtzaOAy4QItVFoAmdNoATTBqRz5w507pBNfNuxrGdT9cTIWhSRT1VHNd8imVhzAR2WHSbiiCJbZeqGmCfBwqR2khYKGiDOIFmflHV0fQls63gAL4ACgHi7KtnIub1NDTp1KmTel5bGJcko1pPh7SNGW+PqecCcd2Vbc8cQ6+XDQUjefVq0MPCpH8w3gPt+CRw5xw5cqR1aBzRhNBX1ThV2Ty5li1bVjqbrjSNmR1gTXowV4ptKrSxHDFaMNbewluCNpA13C1pAB4lkm+0423Aw0Av4iT51KRmErDxsT8Hc+2BAwcap4qmZcxsrhOnGz9irxpP0wvALrFPY60jeK0+MQmBUoLja19oQqskB5kI7wZeDQ/lPiF4P0w8PJVigauNVQsTY67cFQp3JF2cTN2RZVEDSDOYynM7ZqawthBL/QRtMCd0797dKHGIxZV2vAvoXEkSfK3QOPNier1FRSOTQiidFrpJvC5xH+O1XHxlkYbKZ0EaAT7y5Qkiq+TUVCaIeQK7jK2NhccFbUBrSO80iaYRNrbdFSkKkp/Gjh0bGjVfKsY1e/bsMBCjvd4W3jsbt0dtyVxPNCnUxq5F1O4C3IGZRiUxYoRXh0Qw7dwOeUJoLSTSGYI2qBNMXHTIxuccB4waLwJFrCQ0aa+xgXkxLXtJRbURC9C4bRb4cfoS00GPnotKsMfE2lF4QdAGtob5cFRpOqLTkKcuOKlByik5JLa68847Y89JMXyTBXcScTenQFk7r2OoKFEz5OJooqAN7gQWMiaaN2+ejxJ17zBFYn4bZyszTSTz0/gmyWfATcNmSlNLLFqTptAm4CLBWrsJbwraCayhuw1l+Sby7Lt0CkZHk3OM0Ea0JiBRx2bdwKLMZGszU5ELTlsHm62iY4L9YYdO5LWvhsn2AQjvBwaijZEn6LJ09913l646uZiWuJhemezHaCq6MHmqGKkH9udMXu/OVJ9ElamXRbDDZlckn9B3mECP7V2wXKvoKmmJa7IVgZMf/OAHxkUMDnF6Vy5rgqCdzAkmm7qXxYLQQ/+FxNDngseubR8N3JBUsbgsLyKMH6dfXrUWL14cNlmvtQloCmB3zkWXxaWCdkJrSC2McwchoME2XB5K141hzkj3JBf1iCTx+Mj7xR8dVyR50dq3X79+3rIBDcHewu6ePjRM0E7qBMLFdImMI+aVvkLe9ejRo4dxOLye8Aj46rzED51igShxY6Cn3bRp08I1ia+mOQnA3ryJ6IvX9FBW3qbejbJwO9EDzkegoxoCKlOmTAlWrFhROnsykVBEYo+PnnhlWKiZ1OjhLfHVcNIC7CxxtM9Uxwje9tsGHo0mX0K1CCgQgvZh1GTbuZgXk9p59tlnh6me2nlcQSU4rQ2ixP4ynvYYsQH7OlbwLkq7bxC0i3AG7VHjZmyVRcEstYDkTddqe2UCqZ7c3SZNmmRdV0gxAqmnvvpIV0MBhEmFDQ0mfT4dEnKjsK6QighzE17ULsQZrOzj7tdXKZJfmJPyw2Beyt2VfnPV+cgsPgly4CKkeSH5EzSIYSXvoo80+b2+kvk1eI+mW9SRQ62NkSE08NxJSFVDBO1inILDn9W+C+GiwodL0g0LR7wnFIxOnz49DJdTOm87F64UXg7m8j6S+WvBD9N081AWfSlG8UzBrlIXjwESpbULcgqPzDh79WUt8jDo35yFb3bIkCHGBbyDBg1Sx8gQCkIoDMlEuwjepxtAJ1DunnkWc3wqOrJaUNE4x3QvwyRppJ7BjrCnTHWc8KmgXaBTWrduHZZbxdkvLy3RGJ2e0jzmtWv3DXNyKj1MxDogzTm8AdgPdpQLTRa0i/QC9WnMc33tixJHNIFkXp9BzsIqqGKP4zIk2qiNkyHYT27URqCXgXahXsDldvTRR4euJZ9NXqJ0xx13+GjVagRPgWHDhsXai5xgTcYh6mqwmzW2cchabPf6sqBdsDfwFJBySe8zcgqyEF4BOmJq1+cLkuLjZsMxn6aQWBsvI9gZONwmOI/qK7wvaBfuHRaJFIrSkst0IeRKRCyptG7fvr16ba7AlcbWc/SVjiMWp7gJtTEzAjvpL+Ra5wraxacGd2uSj5iGTJgwIdw6gnxpuhlh5LSOYmrCnJsvmcAM/mUWUOxjzZ4rtBiI6iqkCV/2uHHjnBs1UwPSZOlAn0SE0LVxM2SMkHvhf75a0N5AZhDho0SLRCb2rabhCdEv+tD16dMn3PqL/hiV88mePXuGUcQkwtdM+HrAgAFB27ZtV7sWU8gxIXKJB4doZFKNHz9eHT9DrhFqdrzPmzYQ2M9YeyMNBfNxkwryeuKpwNSHhjYEgJgOYeBkqhF6ZjcBAizczQ899NCwcJV0TObittMlnkxsV6e9t4yYI2AfDaW2QqoeDl+QbOSyuplpDSF6FqxMa6gw4U7O9CdpclW1GGvUqFHq+8kQ7GFroSHVXvDeiT8N6FVBimkjiHk70xvtfWTIQwL20NDaQ3hS0N5gQ0EEko3MXZbtuxaLXYJK2vVnyNPCnkKz0D7CM4L2RhsOCgDoCp8n0V+Dmkh+cNo1Z8izAt9/s9K+Ao3vtDfccLBwo/LERfNyG5FnQRori0rtOjPmKWF/oVmqo/CIoL3xhqRDhw7h1CPt6CMLPDp7ptB5MymLhU5CsxaLgHsE7QNoWFgg0l+C6YftLle1RKCHrX3pms/mQzYlYZ65V9hZaBHaRmgWfuhqqKfDlUfFM4uxpEGXsvhhsLnQ1KlTw2pufNLaeXPELGFboUWJMvIpgvaBNAuI4HXu3DlM0cTnSyCEAgN6gxAqJy8bfzMNvgnMEFwhL5pQOpUqGC93YObn2vg5hMjeJkKL1FrCOUJmyUlpQsomBo7HgVYD3GUJn/PfNm3ahKmkJBIl2TA+Yz4UyMnh+2zxItvOW1PzAq9Q7jRAKFShzsJ8QfvACvLJAmE/oZCiLYQrBa/bHRdYw/dDqdOWQqEIHS88J2gfZEG20JnzBKFQDO0u3CpoH2hBNtDXotkHQnyplXCy8JKgfbgF6cDifKjA91HIUtylrxc+FrQPu8APKwU+912FQo7VR2gWCf8NAJ4KPu9CHrWpwE6d3rakaOEwpRgutNhIXhai7el44TVB+1IK4sGuThcKqbeTLfT/Yj59sfC6oH1JBfXBiK8QCi9FjtRBuEBYImhfWsHqPC9cIpBjXiinoqs/uxQ9KhSRxNWh2+ZjwplC4aFoIJFi2k8g8NLS59VvCAQ8BgrFwq7BRf3hKIEKiJZyt+YujBtztNBs6/BasrhbdxGYW9PPY7mgGUKj8rZAf4qJwoFCcRduIaLXWTdhhHCz0Kghc657usCT5yChYXq4FfIjNoWh0PZwge6UcwWSzt8VNAPKihUC18X1jROOErju1PbMK9SYYjeAQ4RThMuEGQJTk1cE33u4MD7neVig8Jcc79MErid3XeYLNaaYg7LL/t7CYcJggTskhZxUJbPgohUVOwgwf6U2rpwcxX/5f/7Ov/O6+wSO43jGYTzGZXzOQ+i+kJGamv4HiFphabMKOKQAAAAASUVORK5CYII=;fontSize=17;" parent="1" vertex="1">
          <mxGeometry x="1111" y="126.5" width="39" height="39" as="geometry" />
        </mxCell>
      </root>
    </mxGraphModel>
  </diagram>
</mxfile>
